<svg width="48" height="48" viewBox="0 0 48 48" fill="none" xmlns="http://www.w3.org/2000/svg">
<path d="M0 16.1C0 10.4051 0 7.55764 1.12587 5.39026C2.07462 3.56382 3.56382 2.07462 5.39026 1.12587C7.55764 0 10.4051 0 16.1 0H31.9C37.5949 0 40.4424 0 42.6097 1.12587C44.4362 2.07462 45.9254 3.56382 46.8741 5.39026C48 7.55764 48 10.4051 48 16.1V31.9C48 37.5949 48 40.4424 46.8741 42.6097C45.9254 44.4362 44.4362 45.9254 42.6097 46.8741C40.4424 48 37.5949 48 31.9 48H16.1C10.4051 48 7.55764 48 5.39026 46.8741C3.56382 45.9254 2.07462 44.4362 1.12587 42.6097C0 40.4424 0 37.5949 0 31.9V16.1Z" fill="#1265BF"/>
<path d="M10.7739 14.9066C13.0736 14.9066 14.9378 13.0423 14.9378 10.7426C14.9378 8.44289 13.0736 6.57861 10.7739 6.57861C8.47414 6.57861 6.60986 8.44289 6.60986 10.7426C6.60986 13.0423 8.47414 14.9066 10.7739 14.9066Z" fill="white"/>
<path d="M18.7513 17.9839H25.6524V21.1453C25.6524 21.1453 27.5251 17.3999 32.6205 17.3999C37.1657 17.3999 40.931 19.639 40.931 26.464V40.856H33.7795V28.2079C33.7795 24.1818 31.6301 23.739 29.9922 23.739C26.593 23.739 26.0111 26.671 26.0111 28.7331V40.856H18.7513V17.9839Z" fill="white"/>
<path d="M7.144 17.9839H14.4037V40.856H7.144V17.9839Z" fill="white"/>
</svg>
