<svg width="48" height="48" viewBox="0 0 48 48" fill="none" xmlns="http://www.w3.org/2000/svg">
<path d="M0 16.1C0 10.4051 0 7.55764 1.12587 5.39026C2.07462 3.56382 3.56382 2.07462 5.39026 1.12587C7.55764 0 10.4051 0 16.1 0H31.9C37.5949 0 40.4424 0 42.6097 1.12587C44.4362 2.07462 45.9254 3.56382 46.8741 5.39026C48 7.55764 48 10.4051 48 16.1V31.9C48 37.5949 48 40.4424 46.8741 42.6097C45.9254 44.4362 44.4362 45.9254 42.6097 46.8741C40.4424 48 37.5949 48 31.9 48H16.1C10.4051 48 7.55764 48 5.39026 46.8741C3.56382 45.9254 2.07462 44.4362 1.12587 42.6097C0 40.4424 0 37.5949 0 31.9V16.1Z" fill="#1EA1F2"/>
<path fill-rule="evenodd" clip-rule="evenodd" d="M37.3227 18.1521C37.3343 18.452 37.3382 18.7516 37.3382 19.0514C37.3382 28.1409 30.9442 38.6342 19.2518 38.6342C15.6601 38.6342 12.3203 37.4895 9.50635 35.5407C10.0038 35.5953 10.5089 35.6362 11.0218 35.6362C13.9999 35.6362 16.7427 34.5322 18.9184 32.6789C16.1368 32.638 13.788 30.6347 12.9779 27.9093C13.3668 27.991 13.7673 28.032 14.1768 28.032C14.7544 28.032 15.3151 27.9504 15.8525 27.7868C12.9417 27.16 10.7492 24.38 10.7492 21.0413C10.7492 21.0004 10.7492 20.9867 10.7492 20.9595C11.6071 21.4637 12.589 21.777 13.6316 21.8178C11.9236 20.5777 10.8009 18.4656 10.8009 16.0808C10.8009 14.827 11.1136 13.6414 11.6639 12.6193C14.7983 16.7893 19.4843 19.5285 24.7673 19.8147C24.6587 19.3104 24.6032 18.7791 24.6032 18.2476C24.6032 14.4456 27.4494 11.3657 30.961 11.3657C32.7891 11.3657 34.4403 12.1971 35.5992 13.5326C37.0501 13.2328 38.4093 12.6605 39.6392 11.8701C39.1625 13.4781 38.156 14.827 36.8408 15.6719C38.1276 15.5083 39.355 15.1407 40.4933 14.5956C39.6393 15.9719 38.5643 17.1846 37.3227 18.1521Z" fill="white"/>
</svg>
