<svg width="48" height="48" viewBox="0 0 48 48" fill="none" xmlns="http://www.w3.org/2000/svg">
<path d="M0 16.1C0 10.4051 0 7.55764 1.12587 5.39026C2.07462 3.56382 3.56382 2.07462 5.39026 1.12587C7.55764 0 10.4051 0 16.1 0H31.9C37.5949 0 40.4424 0 42.6097 1.12587C44.4362 2.07462 45.9254 3.56382 46.8741 5.39026C48 7.55764 48 10.4051 48 16.1V31.9C48 37.5949 48 40.4424 46.8741 42.6097C45.9254 44.4362 44.4362 45.9254 42.6097 46.8741C40.4424 48 37.5949 48 31.9 48H16.1C10.4051 48 7.55764 48 5.39026 46.8741C3.56382 45.9254 2.07462 44.4362 1.12587 42.6097C0 40.4424 0 37.5949 0 31.9V16.1Z" fill="url(#paint0_linear_77_630)"/>
<path fill-rule="evenodd" clip-rule="evenodd" d="M25.3937 6.59265C29.6424 6.80146 33.6014 8.55351 36.6252 11.5794C39.8506 14.8068 41.626 19.0969 41.6243 23.6593C41.6204 33.0742 33.9559 40.7345 24.5405 40.7345H24.5334C21.6741 40.7335 18.8647 40.0166 16.3694 38.6562L7.31299 41.0307L9.7367 32.1823C8.24168 29.5927 7.455 26.6554 7.45623 23.6458C7.46002 14.2311 15.1238 6.57153 24.5403 6.57153L25.3937 6.59265ZM16.789 35.5649L17.3076 35.8725C19.4877 37.1656 21.9867 37.8498 24.5347 37.8508H24.5404C32.3668 37.8508 38.7366 31.4839 38.7397 23.6583C38.7412 19.8661 37.2657 16.3004 34.5848 13.6178C31.9039 10.935 28.3388 9.45676 24.5461 9.45553C16.7137 9.45553 10.3438 15.8217 10.3407 23.6467C10.3396 26.3285 11.0903 28.9402 12.5117 31.1997L12.8493 31.7368L11.4148 36.974L16.789 35.5649ZM33.1471 27.7198C33.0405 27.5417 32.7559 27.435 32.3291 27.2214C31.9022 27.0078 29.8035 25.9757 29.4123 25.8332C29.021 25.691 28.7364 25.6198 28.4518 26.0468C28.1673 26.4739 27.3492 27.435 27.1001 27.7198C26.8512 28.0045 26.6022 28.0401 26.1754 27.8266C25.7485 27.6131 24.3731 27.1624 22.7426 25.7089C21.4736 24.5775 20.6169 23.1804 20.3679 22.7533C20.119 22.3262 20.3413 22.0952 20.555 21.8825C20.7471 21.6913 20.982 21.3842 21.1954 21.135C21.4088 20.886 21.4799 20.7079 21.6223 20.4232C21.7645 20.1385 21.6934 19.8894 21.5867 19.6758C21.4799 19.4622 20.6263 17.3621 20.2706 16.5078C19.924 15.6759 19.5721 15.7885 19.3101 15.7754C19.0614 15.763 18.7765 15.7603 18.492 15.7603C18.2074 15.7603 17.745 15.867 17.3537 16.2943C16.9624 16.7213 15.8596 17.7536 15.8596 19.8536C15.8596 21.9538 17.3893 23.9824 17.6027 24.2672C17.8161 24.5521 20.6127 28.8613 24.8948 30.7096C25.9132 31.1492 26.7084 31.4117 27.3283 31.6083C28.3509 31.933 29.2814 31.8873 30.017 31.7774C30.8371 31.6549 32.5425 30.7452 32.8982 29.7487C33.2539 28.7519 33.2539 27.8977 33.1471 27.7198Z" fill="white"/>
<defs>
<linearGradient id="paint0_linear_77_630" x1="24" y1="48" x2="24" y2="0" gradientUnits="userSpaceOnUse">
<stop stop-color="#25CF43"/>
<stop offset="1" stop-color="#61FD7D"/>
</linearGradient>
</defs>
</svg>
