<svg width="349" height="34" viewBox="0 0 349 34" fill="none" xmlns="http://www.w3.org/2000/svg">
<path d="M0.592 0.223999H5.38L13.264 13.868H13.552L21.436 0.223999H26.26V26H21.436V13.292L21.724 8.972H21.436L14.884 20.528H11.968L5.38 8.972H5.092L5.38 13.292V26H0.592V0.223999ZM41.2278 24.128H40.9398C40.3878 24.8 39.7158 25.376 38.9238 25.856C38.1558 26.336 37.1598 26.576 35.9358 26.576C35.0238 26.576 34.1598 26.42 33.3438 26.108C32.5518 25.82 31.8558 25.412 31.2558 24.884C30.6558 24.356 30.1878 23.72 29.8518 22.976C29.5158 22.232 29.3478 21.416 29.3478 20.528C29.3478 19.616 29.5278 18.8 29.8878 18.08C30.2478 17.336 30.7518 16.7 31.3998 16.172C32.0478 15.644 32.8038 15.248 33.6678 14.984C34.5558 14.696 35.5158 14.552 36.5478 14.552C37.6998 14.552 38.6478 14.648 39.3918 14.84C40.1358 15.008 40.7478 15.188 41.2278 15.38V14.84C41.2278 13.904 40.8558 13.136 40.1118 12.536C39.3678 11.912 38.4438 11.6 37.3398 11.6C35.7078 11.6 34.3278 12.284 33.1998 13.652L29.7798 11.312C31.6518 8.96 34.2078 7.784 37.4478 7.784C40.1838 7.784 42.2718 8.432 43.7118 9.728C45.1518 11 45.8718 12.896 45.8718 15.416V26H41.2278V24.128ZM41.2278 18.836C40.6758 18.572 40.0998 18.368 39.4998 18.224C38.9238 18.056 38.2878 17.972 37.5918 17.972C36.4638 17.972 35.5878 18.224 34.9638 18.728C34.3638 19.208 34.0638 19.808 34.0638 20.528C34.0638 21.248 34.3518 21.824 34.9278 22.256C35.5278 22.688 36.2118 22.904 36.9798 22.904C37.6038 22.904 38.1798 22.796 38.7078 22.58C39.2358 22.34 39.6798 22.04 40.0398 21.68C40.4238 21.296 40.7118 20.864 40.9038 20.384C41.1198 19.88 41.2278 19.364 41.2278 18.836ZM49.6215 0.223999H54.3375V14.264H54.5535L60.4575 8.36H66.2895V8.648L59.7375 15.02L66.8295 25.712V26H61.2495L56.4255 18.26L54.3375 20.312V26H49.6215V0.223999ZM84.888 21.752C84.072 23.192 82.968 24.356 81.576 25.244C80.208 26.132 78.528 26.576 76.536 26.576C75.192 26.576 73.944 26.348 72.792 25.892C71.664 25.412 70.68 24.752 69.84 23.912C69 23.072 68.34 22.088 67.86 20.96C67.404 19.808 67.176 18.548 67.176 17.18C67.176 15.908 67.404 14.708 67.86 13.58C68.316 12.428 68.952 11.432 69.768 10.592C70.584 9.728 71.544 9.044 72.648 8.54C73.776 8.036 75.012 7.784 76.356 7.784C77.772 7.784 79.032 8.024 80.136 8.504C81.24 8.96 82.164 9.608 82.908 10.448C83.652 11.264 84.216 12.236 84.6 13.364C84.984 14.492 85.176 15.716 85.176 17.036C85.176 17.204 85.176 17.348 85.176 17.468C85.152 17.612 85.14 17.744 85.14 17.864C85.116 17.984 85.104 18.116 85.104 18.26H71.82C71.916 18.98 72.108 19.604 72.396 20.132C72.708 20.636 73.08 21.068 73.512 21.428C73.968 21.764 74.46 22.016 74.988 22.184C75.516 22.328 76.056 22.4 76.608 22.4C77.688 22.4 78.576 22.16 79.272 21.68C79.992 21.176 80.556 20.552 80.964 19.808L84.888 21.752ZM80.604 14.912C80.58 14.6 80.472 14.252 80.28 13.868C80.112 13.484 79.848 13.124 79.488 12.788C79.152 12.452 78.72 12.176 78.192 11.96C77.688 11.744 77.076 11.636 76.356 11.636C75.348 11.636 74.46 11.924 73.692 12.5C72.924 13.076 72.384 13.88 72.072 14.912H80.604ZM101.642 25.136L94.226 8.36H99.59L104.054 19.052H104.306L108.59 8.36H113.846L102.794 33.776H97.718L101.642 25.136ZM123.645 7.784C125.013 7.784 126.261 8.024 127.389 8.504C128.541 8.96 129.525 9.608 130.341 10.448C131.181 11.264 131.829 12.248 132.285 13.4C132.765 14.552 133.005 15.812 133.005 17.18C133.005 18.548 132.765 19.808 132.285 20.96C131.829 22.112 131.181 23.108 130.341 23.948C129.525 24.764 128.541 25.412 127.389 25.892C126.261 26.348 125.013 26.576 123.645 26.576C122.277 26.576 121.017 26.348 119.865 25.892C118.737 25.412 117.753 24.764 116.913 23.948C116.097 23.108 115.449 22.112 114.969 20.96C114.513 19.808 114.285 18.548 114.285 17.18C114.285 15.812 114.513 14.552 114.969 13.4C115.449 12.248 116.097 11.264 116.913 10.448C117.753 9.608 118.737 8.96 119.865 8.504C121.017 8.024 122.277 7.784 123.645 7.784ZM123.645 22.22C124.245 22.22 124.821 22.112 125.373 21.896C125.949 21.656 126.453 21.32 126.885 20.888C127.317 20.456 127.653 19.928 127.893 19.304C128.157 18.68 128.289 17.972 128.289 17.18C128.289 16.388 128.157 15.68 127.893 15.056C127.653 14.432 127.317 13.904 126.885 13.472C126.453 13.04 125.949 12.716 125.373 12.5C124.821 12.26 124.245 12.14 123.645 12.14C123.021 12.14 122.433 12.26 121.881 12.5C121.329 12.716 120.837 13.04 120.405 13.472C119.973 13.904 119.625 14.432 119.361 15.056C119.121 15.68 119.001 16.388 119.001 17.18C119.001 17.972 119.121 18.68 119.361 19.304C119.625 19.928 119.973 20.456 120.405 20.888C120.837 21.32 121.329 21.656 121.881 21.896C122.433 22.112 123.021 22.22 123.645 22.22ZM148.064 23.696H147.776C147.224 24.584 146.48 25.292 145.544 25.82C144.608 26.324 143.54 26.576 142.34 26.576C140.108 26.576 138.44 25.892 137.336 24.524C136.256 23.156 135.716 21.332 135.716 19.052V8.36H140.432V18.476C140.432 19.748 140.708 20.696 141.26 21.32C141.836 21.92 142.664 22.22 143.744 22.22C144.392 22.22 144.956 22.088 145.436 21.824C145.94 21.536 146.36 21.164 146.696 20.708C147.056 20.228 147.32 19.676 147.488 19.052C147.68 18.404 147.776 17.72 147.776 17V8.36H152.492V26H148.064V23.696ZM156.532 8.36H160.96V10.808H161.248C161.464 10.376 161.752 9.98 162.112 9.62C162.472 9.26 162.868 8.948 163.3 8.684C163.756 8.42 164.236 8.216 164.74 8.072C165.268 7.928 165.784 7.856 166.288 7.856C166.912 7.856 167.44 7.916 167.872 8.036C168.328 8.156 168.712 8.312 169.024 8.504L167.764 12.788C167.476 12.644 167.152 12.536 166.792 12.464C166.456 12.368 166.036 12.32 165.532 12.32C164.884 12.32 164.296 12.452 163.768 12.716C163.24 12.956 162.784 13.304 162.4 13.76C162.04 14.216 161.752 14.756 161.536 15.38C161.344 15.98 161.248 16.64 161.248 17.36V26H156.532V8.36ZM187.454 7.784C188.822 7.784 190.07 8.024 191.198 8.504C192.35 8.96 193.334 9.608 194.15 10.448C194.99 11.264 195.638 12.248 196.094 13.4C196.574 14.552 196.814 15.812 196.814 17.18C196.814 18.548 196.574 19.808 196.094 20.96C195.638 22.112 194.99 23.108 194.15 23.948C193.334 24.764 192.35 25.412 191.198 25.892C190.07 26.348 188.822 26.576 187.454 26.576C186.086 26.576 184.826 26.348 183.674 25.892C182.546 25.412 181.562 24.764 180.722 23.948C179.906 23.108 179.258 22.112 178.778 20.96C178.322 19.808 178.094 18.548 178.094 17.18C178.094 15.812 178.322 14.552 178.778 13.4C179.258 12.248 179.906 11.264 180.722 10.448C181.562 9.608 182.546 8.96 183.674 8.504C184.826 8.024 186.086 7.784 187.454 7.784ZM187.454 22.22C188.054 22.22 188.63 22.112 189.182 21.896C189.758 21.656 190.262 21.32 190.694 20.888C191.126 20.456 191.462 19.928 191.702 19.304C191.966 18.68 192.098 17.972 192.098 17.18C192.098 16.388 191.966 15.68 191.702 15.056C191.462 14.432 191.126 13.904 190.694 13.472C190.262 13.04 189.758 12.716 189.182 12.5C188.63 12.26 188.054 12.14 187.454 12.14C186.83 12.14 186.242 12.26 185.69 12.5C185.138 12.716 184.646 13.04 184.214 13.472C183.782 13.904 183.434 14.432 183.17 15.056C182.93 15.68 182.81 16.388 182.81 17.18C182.81 17.972 182.93 18.68 183.17 19.304C183.434 19.928 183.782 20.456 184.214 20.888C184.646 21.32 185.138 21.656 185.69 21.896C186.242 22.112 186.83 22.22 187.454 22.22ZM197.621 8.36H202.913L205.829 19.412H206.081L209.573 8.36H214.433L217.961 19.412H218.213L221.093 8.36H226.313L220.661 26H215.585L212.057 14.876H211.805L208.277 26H203.273L197.621 8.36ZM232.889 10.664H233.177C233.729 9.776 234.473 9.08 235.409 8.576C236.345 8.048 237.413 7.784 238.613 7.784C239.717 7.784 240.689 7.964 241.529 8.324C242.369 8.684 243.053 9.2 243.581 9.872C244.133 10.52 244.541 11.312 244.805 12.248C245.093 13.16 245.237 14.18 245.237 15.308V26H240.521V15.884C240.521 14.612 240.233 13.676 239.657 13.076C239.105 12.452 238.289 12.14 237.209 12.14C236.561 12.14 235.985 12.284 235.481 12.572C235.001 12.836 234.581 13.208 234.221 13.688C233.885 14.144 233.621 14.696 233.429 15.344C233.261 15.968 233.177 16.64 233.177 17.36V26H228.461V8.36H232.889V10.664ZM262.479 4.832V10.808H272.811V15.416H262.479V21.392H273.963V26H257.619V0.223999H273.963V4.832H262.479ZM275.281 8.36H280.645L285.037 19.592H285.289L289.717 8.36H295.045L287.449 26H282.805L275.281 8.36ZM313.368 21.752C312.552 23.192 311.448 24.356 310.056 25.244C308.688 26.132 307.008 26.576 305.016 26.576C303.672 26.576 302.424 26.348 301.272 25.892C300.144 25.412 299.16 24.752 298.32 23.912C297.48 23.072 296.82 22.088 296.34 20.96C295.884 19.808 295.656 18.548 295.656 17.18C295.656 15.908 295.884 14.708 296.34 13.58C296.796 12.428 297.432 11.432 298.248 10.592C299.064 9.728 300.024 9.044 301.128 8.54C302.256 8.036 303.492 7.784 304.836 7.784C306.252 7.784 307.512 8.024 308.616 8.504C309.72 8.96 310.644 9.608 311.388 10.448C312.132 11.264 312.696 12.236 313.08 13.364C313.464 14.492 313.656 15.716 313.656 17.036C313.656 17.204 313.656 17.348 313.656 17.468C313.632 17.612 313.62 17.744 313.62 17.864C313.596 17.984 313.584 18.116 313.584 18.26H300.3C300.396 18.98 300.588 19.604 300.876 20.132C301.188 20.636 301.56 21.068 301.992 21.428C302.448 21.764 302.94 22.016 303.468 22.184C303.996 22.328 304.536 22.4 305.088 22.4C306.168 22.4 307.056 22.16 307.752 21.68C308.472 21.176 309.036 20.552 309.444 19.808L313.368 21.752ZM309.084 14.912C309.06 14.6 308.952 14.252 308.76 13.868C308.592 13.484 308.328 13.124 307.968 12.788C307.632 12.452 307.2 12.176 306.672 11.96C306.168 11.744 305.556 11.636 304.836 11.636C303.828 11.636 302.94 11.924 302.172 12.5C301.404 13.076 300.864 13.88 300.552 14.912H309.084ZM321.096 10.664H321.384C321.936 9.776 322.68 9.08 323.616 8.576C324.552 8.048 325.62 7.784 326.82 7.784C327.924 7.784 328.896 7.964 329.736 8.324C330.576 8.684 331.26 9.2 331.788 9.872C332.34 10.52 332.748 11.312 333.012 12.248C333.3 13.16 333.444 14.18 333.444 15.308V26H328.728V15.884C328.728 14.612 328.44 13.676 327.864 13.076C327.312 12.452 326.496 12.14 325.416 12.14C324.768 12.14 324.192 12.284 323.688 12.572C323.208 12.836 322.788 13.208 322.428 13.688C322.092 14.144 321.828 14.696 321.636 15.344C321.468 15.968 321.384 16.64 321.384 17.36V26H316.668V8.36H321.096V10.664ZM338.37 12.392H335.274V8.36H338.37V2.96H343.086V8.36H347.406V12.392H343.086V19.232C343.086 19.64 343.122 20.024 343.194 20.384C343.29 20.72 343.458 21.008 343.698 21.248C344.034 21.632 344.514 21.824 345.138 21.824C345.546 21.824 345.87 21.788 346.11 21.716C346.35 21.62 346.578 21.5 346.794 21.356L348.126 25.496C347.574 25.76 346.974 25.952 346.326 26.072C345.702 26.216 345.006 26.288 344.238 26.288C343.35 26.288 342.546 26.156 341.826 25.892C341.13 25.604 340.542 25.22 340.062 24.74C338.934 23.66 338.37 22.124 338.37 20.132V12.392Z" fill="#F8F8FA"/>
</svg>
