<svg width="162" height="36" viewBox="0 0 162 36" fill="none" xmlns="http://www.w3.org/2000/svg">
<path d="M13.796 27.576C11.876 27.576 10.088 27.228 8.432 26.532C6.8 25.836 5.384 24.888 4.184 23.688C2.984 22.464 2.036 21.036 1.34 19.404C0.668 17.748 0.332 15.984 0.332 14.112C0.332 12.24 0.668 10.488 1.34 8.856C2.036 7.2 2.984 5.772 4.184 4.572C5.384 3.348 6.8 2.388 8.432 1.692C10.088 0.995999 11.876 0.647998 13.796 0.647998C15.716 0.647998 17.492 0.995999 19.124 1.692C20.78 2.388 22.208 3.348 23.408 4.572C24.608 5.772 25.544 7.2 26.216 8.856C26.912 10.488 27.26 12.24 27.26 14.112C27.26 15.984 26.912 17.748 26.216 19.404C25.544 21.036 24.608 22.464 23.408 23.688C22.208 24.888 20.78 25.836 19.124 26.532C17.492 27.228 15.716 27.576 13.796 27.576ZM13.796 22.968C14.996 22.968 16.112 22.752 17.144 22.32C18.2 21.888 19.112 21.288 19.88 20.52C20.672 19.752 21.284 18.828 21.716 17.748C22.172 16.644 22.4 15.432 22.4 14.112C22.4 12.792 22.172 11.592 21.716 10.512C21.284 9.408 20.672 8.472 19.88 7.704C19.112 6.936 18.2 6.336 17.144 5.904C16.112 5.472 14.996 5.256 13.796 5.256C12.596 5.256 11.468 5.472 10.412 5.904C9.38 6.336 8.468 6.936 7.676 7.704C6.908 8.472 6.296 9.408 5.84 10.512C5.408 11.592 5.192 12.792 5.192 14.112C5.192 15.432 5.408 16.644 5.84 17.748C6.296 18.828 6.908 19.752 7.676 20.52C8.468 21.288 9.38 21.888 10.412 22.32C11.468 22.752 12.596 22.968 13.796 22.968ZM42.8216 24.696H42.5336C41.9816 25.584 41.2376 26.292 40.3016 26.82C39.3656 27.324 38.2976 27.576 37.0976 27.576C34.8656 27.576 33.1976 26.892 32.0936 25.524C31.0136 24.156 30.4736 22.332 30.4736 20.052V9.36H35.1896V19.476C35.1896 20.748 35.4656 21.696 36.0176 22.32C36.5936 22.92 37.4216 23.22 38.5016 23.22C39.1496 23.22 39.7136 23.088 40.1936 22.824C40.6976 22.536 41.1176 22.164 41.4536 21.708C41.8136 21.228 42.0776 20.676 42.2456 20.052C42.4376 19.404 42.5336 18.72 42.5336 18V9.36H47.2496V27H42.8216V24.696ZM51.2894 9.36H55.7174V11.808H56.0054C56.2214 11.376 56.5094 10.98 56.8694 10.62C57.2294 10.26 57.6254 9.948 58.0574 9.684C58.5134 9.42 58.9934 9.216 59.4974 9.072C60.0254 8.928 60.5414 8.856 61.0454 8.856C61.6694 8.856 62.1974 8.916 62.6294 9.036C63.0854 9.156 63.4694 9.312 63.7814 9.504L62.5214 13.788C62.2334 13.644 61.9094 13.536 61.5494 13.464C61.2134 13.368 60.7934 13.32 60.2894 13.32C59.6414 13.32 59.0534 13.452 58.5254 13.716C57.9974 13.956 57.5414 14.304 57.1574 14.76C56.7974 15.216 56.5094 15.756 56.2934 16.38C56.1014 16.98 56.0054 17.64 56.0054 18.36V27H51.2894V9.36Z" fill="black"/>
<path d="M74.4358 1.224H84.5158C85.6198 1.224 86.6518 1.404 87.6118 1.764C88.5718 2.1 89.3998 2.58 90.0958 3.204C90.8158 3.804 91.3798 4.512 91.7878 5.328C92.1958 6.144 92.3998 7.02 92.3998 7.956C92.3998 9.324 92.0638 10.476 91.3918 11.412C90.7438 12.324 89.9278 13.02 88.9438 13.5V13.788C90.2638 14.268 91.3198 15.024 92.1118 16.056C92.9278 17.064 93.3358 18.324 93.3358 19.836C93.3358 20.94 93.1078 21.936 92.6518 22.824C92.2198 23.688 91.6198 24.432 90.8517 25.056C90.0838 25.68 89.1838 26.16 88.1518 26.496C87.1438 26.832 86.0518 27 84.8758 27H74.4358V1.224ZM84.1558 11.736C85.2838 11.736 86.1478 11.436 86.7478 10.836C87.3718 10.212 87.6838 9.48 87.6838 8.64C87.6838 7.8 87.3838 7.08 86.7838 6.48C86.1838 5.88 85.3558 5.58 84.2998 5.58H79.2958V11.736H84.1558ZM84.6958 22.536C85.9198 22.536 86.8558 22.236 87.5038 21.636C88.1518 21.012 88.4758 20.22 88.4758 19.26C88.4758 18.3 88.1398 17.508 87.4678 16.884C86.8198 16.236 85.8478 15.912 84.5518 15.912H79.2958V22.536H84.6958ZM96.5004 27V1.224H101.216V27H96.5004ZM113.431 8.784C114.799 8.784 116.047 9.024 117.175 9.504C118.327 9.96 119.311 10.608 120.127 11.448C120.967 12.264 121.615 13.248 122.07 14.4C122.551 15.552 122.791 16.812 122.791 18.18C122.791 19.548 122.551 20.808 122.07 21.96C121.615 23.112 120.967 24.108 120.127 24.948C119.311 25.764 118.327 26.412 117.175 26.892C116.047 27.348 114.799 27.576 113.431 27.576C112.063 27.576 110.803 27.348 109.651 26.892C108.523 26.412 107.539 25.764 106.699 24.948C105.883 24.108 105.235 23.112 104.755 21.96C104.299 20.808 104.071 19.548 104.071 18.18C104.071 16.812 104.299 15.552 104.755 14.4C105.235 13.248 105.883 12.264 106.699 11.448C107.539 10.608 108.523 9.96 109.651 9.504C110.803 9.024 112.063 8.784 113.431 8.784ZM113.431 23.22C114.031 23.22 114.607 23.112 115.159 22.896C115.735 22.656 116.239 22.32 116.671 21.888C117.103 21.456 117.439 20.928 117.679 20.304C117.943 19.68 118.075 18.972 118.075 18.18C118.075 17.388 117.943 16.68 117.679 16.056C117.439 15.432 117.103 14.904 116.671 14.472C116.239 14.04 115.735 13.716 115.159 13.5C114.607 13.26 114.031 13.14 113.431 13.14C112.807 13.14 112.219 13.26 111.667 13.5C111.115 13.716 110.623 14.04 110.191 14.472C109.759 14.904 109.411 15.432 109.147 16.056C108.907 16.68 108.787 17.388 108.787 18.18C108.787 18.972 108.907 19.68 109.147 20.304C109.411 20.928 109.759 21.456 110.191 21.888C110.623 22.32 111.115 22.656 111.667 22.896C112.219 23.112 112.807 23.22 113.431 23.22ZM133.957 35.352C132.709 35.352 131.593 35.184 130.609 34.848C129.649 34.536 128.809 34.116 128.089 33.588C127.369 33.084 126.769 32.52 126.289 31.896C125.809 31.272 125.461 30.648 125.245 30.024L129.745 28.224C130.081 29.16 130.633 29.88 131.401 30.384C132.169 30.912 133.021 31.176 133.957 31.176C135.445 31.176 136.621 30.708 137.485 29.772C138.349 28.86 138.781 27.576 138.781 25.92V24.696H138.493C137.941 25.464 137.209 26.076 136.297 26.532C135.409 26.964 134.353 27.18 133.129 27.18C132.073 27.18 131.041 26.964 130.033 26.532C129.049 26.1 128.173 25.488 127.405 24.696C126.637 23.88 126.013 22.908 125.533 21.78C125.053 20.652 124.813 19.392 124.813 18C124.813 16.608 125.053 15.348 125.533 14.22C126.013 13.068 126.637 12.096 127.405 11.304C128.173 10.488 129.049 9.864 130.033 9.432C131.041 9 132.073 8.784 133.129 8.784C134.353 8.784 135.409 9.012 136.297 9.468C137.209 9.9 137.941 10.5 138.493 11.268H138.781V9.36H143.281V25.74C143.281 27.228 143.053 28.56 142.597 29.736C142.141 30.936 141.505 31.944 140.689 32.76C139.873 33.6 138.889 34.236 137.737 34.668C136.609 35.124 135.349 35.352 133.957 35.352ZM134.137 22.932C134.713 22.932 135.277 22.824 135.829 22.608C136.405 22.392 136.909 22.08 137.341 21.672C137.773 21.24 138.121 20.724 138.385 20.124C138.649 19.5 138.781 18.792 138.781 18C138.781 17.208 138.649 16.5 138.385 15.876C138.121 15.252 137.773 14.736 137.341 14.328C136.909 13.896 136.405 13.572 135.829 13.356C135.277 13.14 134.713 13.032 134.137 13.032C133.561 13.032 132.997 13.14 132.445 13.356C131.893 13.572 131.401 13.896 130.969 14.328C130.537 14.76 130.189 15.288 129.925 15.912C129.661 16.512 129.529 17.208 129.529 18C129.529 18.792 129.661 19.5 129.925 20.124C130.189 20.724 130.537 21.24 130.969 21.672C131.401 22.08 131.893 22.392 132.445 22.608C132.997 22.824 133.561 22.932 134.137 22.932ZM154.109 27.576C152.957 27.576 151.925 27.432 151.013 27.144C150.125 26.856 149.345 26.484 148.673 26.028C148.025 25.548 147.473 25.008 147.017 24.408C146.561 23.784 146.213 23.16 145.973 22.536L150.185 20.736C150.593 21.648 151.133 22.332 151.805 22.788C152.501 23.22 153.269 23.436 154.109 23.436C154.973 23.436 155.657 23.28 156.161 22.968C156.665 22.656 156.917 22.284 156.917 21.852C156.917 21.372 156.701 20.988 156.269 20.7C155.861 20.388 155.141 20.112 154.109 19.872L151.625 19.332C151.073 19.212 150.497 19.02 149.897 18.756C149.321 18.492 148.793 18.156 148.313 17.748C147.833 17.34 147.437 16.848 147.125 16.272C146.813 15.696 146.657 15.024 146.657 14.256C146.657 13.392 146.837 12.624 147.197 11.952C147.581 11.28 148.097 10.716 148.745 10.26C149.393 9.78 150.149 9.42 151.013 9.18C151.901 8.916 152.849 8.784 153.857 8.784C155.537 8.784 157.037 9.12 158.357 9.792C159.677 10.44 160.649 11.484 161.273 12.924L157.205 14.58C156.869 13.884 156.377 13.38 155.729 13.068C155.081 12.756 154.433 12.6 153.785 12.6C153.113 12.6 152.525 12.744 152.021 13.032C151.517 13.296 151.265 13.644 151.265 14.076C151.265 14.484 151.469 14.808 151.877 15.048C152.309 15.288 152.885 15.504 153.605 15.696L156.305 16.344C158.105 16.776 159.437 17.472 160.301 18.432C161.189 19.368 161.633 20.484 161.633 21.78C161.633 22.548 161.453 23.28 161.093 23.976C160.733 24.672 160.217 25.296 159.545 25.848C158.897 26.376 158.105 26.796 157.169 27.108C156.257 27.42 155.237 27.576 154.109 27.576Z" fill="#7848F4"/>
</svg>
