<svg width="290" height="36" viewBox="0 0 290 36" fill="none" xmlns="http://www.w3.org/2000/svg">
<path d="M8.064 27V5.832H0.864V1.224H20.124V5.832H12.924V27H8.064ZM20.8598 9.36H25.2878V11.808H25.5758C25.7918 11.376 26.0798 10.98 26.4398 10.62C26.7998 10.26 27.1958 9.948 27.6278 9.684C28.0838 9.42 28.5638 9.216 29.0678 9.072C29.5958 8.928 30.1118 8.856 30.6158 8.856C31.2398 8.856 31.7678 8.916 32.1998 9.036C32.6558 9.156 33.0398 9.312 33.3518 9.504L32.0918 13.788C31.8038 13.644 31.4798 13.536 31.1198 13.464C30.7838 13.368 30.3638 13.32 29.8598 13.32C29.2118 13.32 28.6238 13.452 28.0957 13.716C27.5678 13.956 27.1118 14.304 26.7278 14.76C26.3678 15.216 26.0798 15.756 25.8638 16.38C25.6718 16.98 25.5758 17.64 25.5758 18.36V27H20.8598V9.36ZM51.1341 22.752C50.3181 24.192 49.2141 25.356 47.8221 26.244C46.4541 27.132 44.7741 27.576 42.7821 27.576C41.4381 27.576 40.1901 27.348 39.0381 26.892C37.9101 26.412 36.9261 25.752 36.0861 24.912C35.2461 24.072 34.5861 23.088 34.1061 21.96C33.6501 20.808 33.4221 19.548 33.4221 18.18C33.4221 16.908 33.6501 15.708 34.1061 14.58C34.5621 13.428 35.1981 12.432 36.0141 11.592C36.8301 10.728 37.7901 10.044 38.8941 9.54C40.0221 9.036 41.2581 8.784 42.6021 8.784C44.0181 8.784 45.2781 9.024 46.3821 9.504C47.4861 9.96 48.4101 10.608 49.1541 11.448C49.8981 12.264 50.4621 13.236 50.8461 14.364C51.2301 15.492 51.4221 16.716 51.4221 18.036C51.4221 18.204 51.4221 18.348 51.4221 18.468C51.3981 18.612 51.3861 18.744 51.3861 18.864C51.3621 18.984 51.3501 19.116 51.3501 19.26H38.0661C38.1621 19.98 38.3541 20.604 38.6421 21.132C38.9541 21.636 39.3261 22.068 39.7581 22.428C40.2141 22.764 40.7061 23.016 41.2341 23.184C41.7621 23.328 42.3021 23.4 42.8541 23.4C43.9341 23.4 44.8221 23.16 45.5181 22.68C46.2381 22.176 46.8021 21.552 47.2101 20.808L51.1341 22.752ZM46.8501 15.912C46.8261 15.6 46.7181 15.252 46.5261 14.868C46.3581 14.484 46.0941 14.124 45.7341 13.788C45.3981 13.452 44.9661 13.176 44.4381 12.96C43.9341 12.744 43.3221 12.636 42.6021 12.636C41.5941 12.636 40.7061 12.924 39.9381 13.5C39.1701 14.076 38.6301 14.88 38.3181 15.912H46.8501ZM58.862 11.664H59.15C59.702 10.776 60.446 10.08 61.382 9.576C62.318 9.048 63.386 8.784 64.586 8.784C65.69 8.784 66.662 8.964 67.502 9.324C68.342 9.684 69.026 10.2 69.554 10.872C70.106 11.52 70.514 12.312 70.778 13.248C71.066 14.16 71.21 15.18 71.21 16.308V27H66.494V16.884C66.494 15.612 66.206 14.676 65.63 14.076C65.078 13.452 64.262 13.14 63.182 13.14C62.534 13.14 61.958 13.284 61.454 13.572C60.974 13.836 60.554 14.208 60.194 14.688C59.858 15.144 59.594 15.696 59.402 16.344C59.234 16.968 59.15 17.64 59.15 18.36V27H54.434V9.36H58.862V11.664ZM88.2458 24.876H87.9578C87.5258 25.62 86.8538 26.256 85.9418 26.784C85.0298 27.312 83.9018 27.576 82.5578 27.576C81.4298 27.576 80.3498 27.348 79.3178 26.892C78.3098 26.412 77.4098 25.764 76.6178 24.948C75.8498 24.108 75.2378 23.112 74.7818 21.96C74.3258 20.808 74.0978 19.548 74.0978 18.18C74.0978 16.812 74.3258 15.552 74.7818 14.4C75.2378 13.248 75.8498 12.264 76.6178 11.448C77.4098 10.608 78.3098 9.96 79.3178 9.504C80.3498 9.024 81.4298 8.784 82.5578 8.784C83.9018 8.784 85.0298 9.048 85.9418 9.576C86.8538 10.104 87.5258 10.74 87.9578 11.484H88.2458L87.9578 8.964V1.224H92.6738V27H88.2458V24.876ZM83.5298 23.22C84.1538 23.22 84.7418 23.112 85.2938 22.896C85.8698 22.656 86.3738 22.32 86.8058 21.888C87.2378 21.456 87.5858 20.928 87.8498 20.304C88.1138 19.68 88.2458 18.972 88.2458 18.18C88.2458 17.388 88.1138 16.68 87.8498 16.056C87.5858 15.432 87.2378 14.904 86.8058 14.472C86.3738 14.04 85.8698 13.716 85.2938 13.5C84.7418 13.26 84.1538 13.14 83.5298 13.14C82.9058 13.14 82.3058 13.26 81.7298 13.5C81.1778 13.74 80.6858 14.076 80.2538 14.508C79.8218 14.94 79.4738 15.468 79.2098 16.092C78.9458 16.716 78.8138 17.412 78.8138 18.18C78.8138 18.948 78.9458 19.644 79.2098 20.268C79.4738 20.892 79.8218 21.42 80.2538 21.852C80.6858 22.284 81.1778 22.62 81.7298 22.86C82.3058 23.1 82.9058 23.22 83.5298 23.22ZM99.3198 6.804C98.9118 6.804 98.5158 6.732 98.1318 6.588C97.7718 6.42 97.4478 6.204 97.1598 5.94C96.8958 5.652 96.6798 5.328 96.5118 4.968C96.3678 4.608 96.2958 4.212 96.2958 3.78C96.2958 3.348 96.3678 2.952 96.5118 2.592C96.6798 2.232 96.8958 1.92 97.1598 1.656C97.4478 1.368 97.7718 1.152 98.1318 1.008C98.5158 0.839998 98.9118 0.755999 99.3198 0.755999C100.16 0.755999 100.88 1.056 101.48 1.656C102.08 2.232 102.38 2.94 102.38 3.78C102.38 4.62 102.08 5.34 101.48 5.94C100.88 6.516 100.16 6.804 99.3198 6.804ZM96.9798 27V9.36H101.696V27H96.9798ZM110.436 11.664H110.724C111.276 10.776 112.02 10.08 112.956 9.576C113.892 9.048 114.96 8.784 116.16 8.784C117.264 8.784 118.236 8.964 119.076 9.324C119.916 9.684 120.6 10.2 121.128 10.872C121.68 11.52 122.088 12.312 122.352 13.248C122.64 14.16 122.784 15.18 122.784 16.308V27H118.068V16.884C118.068 15.612 117.78 14.676 117.204 14.076C116.652 13.452 115.836 13.14 114.756 13.14C114.108 13.14 113.532 13.284 113.028 13.572C112.548 13.836 112.128 14.208 111.768 14.688C111.432 15.144 111.168 15.696 110.976 16.344C110.808 16.968 110.724 17.64 110.724 18.36V27H106.008V9.36H110.436V11.664ZM134.64 35.352C133.392 35.352 132.276 35.184 131.292 34.848C130.332 34.536 129.492 34.116 128.772 33.588C128.052 33.084 127.452 32.52 126.972 31.896C126.492 31.272 126.144 30.648 125.928 30.024L130.428 28.224C130.764 29.16 131.316 29.88 132.084 30.384C132.852 30.912 133.704 31.176 134.64 31.176C136.128 31.176 137.304 30.708 138.168 29.772C139.032 28.86 139.464 27.576 139.464 25.92V24.696H139.176C138.624 25.464 137.892 26.076 136.98 26.532C136.092 26.964 135.036 27.18 133.812 27.18C132.756 27.18 131.724 26.964 130.716 26.532C129.732 26.1 128.856 25.488 128.088 24.696C127.32 23.88 126.696 22.908 126.216 21.78C125.736 20.652 125.496 19.392 125.496 18C125.496 16.608 125.736 15.348 126.216 14.22C126.696 13.068 127.32 12.096 128.088 11.304C128.856 10.488 129.732 9.864 130.716 9.432C131.724 9 132.756 8.784 133.812 8.784C135.036 8.784 136.092 9.012 136.98 9.468C137.892 9.9 138.624 10.5 139.176 11.268H139.464V9.36H143.964V25.74C143.964 27.228 143.736 28.56 143.28 29.736C142.824 30.936 142.188 31.944 141.372 32.76C140.556 33.6 139.572 34.236 138.42 34.668C137.292 35.124 136.032 35.352 134.64 35.352ZM134.82 22.932C135.396 22.932 135.96 22.824 136.512 22.608C137.088 22.392 137.592 22.08 138.024 21.672C138.456 21.24 138.804 20.724 139.068 20.124C139.332 19.5 139.464 18.792 139.464 18C139.464 17.208 139.332 16.5 139.068 15.876C138.804 15.252 138.456 14.736 138.024 14.328C137.592 13.896 137.088 13.572 136.512 13.356C135.96 13.14 135.396 13.032 134.82 13.032C134.244 13.032 133.68 13.14 133.128 13.356C132.576 13.572 132.084 13.896 131.652 14.328C131.22 14.76 130.872 15.288 130.608 15.912C130.344 16.512 130.212 17.208 130.212 18C130.212 18.792 130.344 19.5 130.608 20.124C130.872 20.724 131.22 21.24 131.652 21.672C132.084 22.08 132.576 22.392 133.128 22.608C133.68 22.824 134.244 22.932 134.82 22.932Z" fill="black"/>
<path d="M172.635 22.5C171.867 23.988 170.787 25.212 169.395 26.172C168.027 27.108 166.311 27.576 164.247 27.576C162.879 27.576 161.619 27.348 160.467 26.892C159.339 26.412 158.355 25.752 157.515 24.912C156.699 24.072 156.051 23.088 155.571 21.96C155.115 20.808 154.887 19.548 154.887 18.18C154.887 16.812 155.115 15.552 155.571 14.4C156.051 13.248 156.699 12.264 157.515 11.448C158.355 10.608 159.339 9.96 160.467 9.504C161.619 9.024 162.879 8.784 164.247 8.784C166.287 8.784 168.003 9.252 169.395 10.188C170.787 11.124 171.807 12.336 172.455 13.824L168.135 15.624C167.727 14.808 167.199 14.196 166.551 13.788C165.927 13.356 165.135 13.14 164.175 13.14C163.551 13.14 162.963 13.26 162.411 13.5C161.859 13.74 161.367 14.076 160.935 14.508C160.527 14.94 160.203 15.468 159.963 16.092C159.723 16.716 159.603 17.412 159.603 18.18C159.603 18.948 159.723 19.644 159.963 20.268C160.203 20.892 160.527 21.42 160.935 21.852C161.367 22.284 161.859 22.62 162.411 22.86C162.963 23.1 163.551 23.22 164.175 23.22C165.159 23.22 165.987 23.004 166.659 22.572C167.355 22.116 167.907 21.468 168.315 20.628L172.635 22.5ZM183.688 8.784C185.056 8.784 186.304 9.024 187.432 9.504C188.584 9.96 189.568 10.608 190.384 11.448C191.224 12.264 191.872 13.248 192.328 14.4C192.808 15.552 193.048 16.812 193.048 18.18C193.048 19.548 192.808 20.808 192.328 21.96C191.872 23.112 191.224 24.108 190.384 24.948C189.568 25.764 188.584 26.412 187.432 26.892C186.304 27.348 185.056 27.576 183.688 27.576C182.32 27.576 181.06 27.348 179.908 26.892C178.78 26.412 177.796 25.764 176.956 24.948C176.14 24.108 175.492 23.112 175.012 21.96C174.556 20.808 174.328 19.548 174.328 18.18C174.328 16.812 174.556 15.552 175.012 14.4C175.492 13.248 176.14 12.264 176.956 11.448C177.796 10.608 178.78 9.96 179.908 9.504C181.06 9.024 182.32 8.784 183.688 8.784ZM183.688 23.22C184.288 23.22 184.864 23.112 185.416 22.896C185.992 22.656 186.496 22.32 186.928 21.888C187.36 21.456 187.696 20.928 187.936 20.304C188.2 19.68 188.332 18.972 188.332 18.18C188.332 17.388 188.2 16.68 187.936 16.056C187.696 15.432 187.36 14.904 186.928 14.472C186.496 14.04 185.992 13.716 185.416 13.5C184.864 13.26 184.288 13.14 183.688 13.14C183.064 13.14 182.476 13.26 181.924 13.5C181.372 13.716 180.88 14.04 180.448 14.472C180.016 14.904 179.668 15.432 179.404 16.056C179.164 16.68 179.044 17.388 179.044 18.18C179.044 18.972 179.164 19.68 179.404 20.304C179.668 20.928 180.016 21.456 180.448 21.888C180.88 22.32 181.372 22.656 181.924 22.896C182.476 23.112 183.064 23.22 183.688 23.22ZM195.903 27V1.224H200.619V27H195.903ZM204.657 27V1.224H209.373V27H204.657ZM229.939 22.752C229.123 24.192 228.019 25.356 226.627 26.244C225.259 27.132 223.579 27.576 221.587 27.576C220.243 27.576 218.995 27.348 217.843 26.892C216.715 26.412 215.731 25.752 214.891 24.912C214.051 24.072 213.391 23.088 212.911 21.96C212.455 20.808 212.227 19.548 212.227 18.18C212.227 16.908 212.455 15.708 212.911 14.58C213.367 13.428 214.003 12.432 214.819 11.592C215.635 10.728 216.595 10.044 217.699 9.54C218.827 9.036 220.063 8.784 221.407 8.784C222.823 8.784 224.083 9.024 225.187 9.504C226.291 9.96 227.215 10.608 227.959 11.448C228.703 12.264 229.267 13.236 229.651 14.364C230.035 15.492 230.227 16.716 230.227 18.036C230.227 18.204 230.227 18.348 230.227 18.468C230.203 18.612 230.191 18.744 230.191 18.864C230.167 18.984 230.155 19.116 230.155 19.26H216.871C216.967 19.98 217.159 20.604 217.447 21.132C217.759 21.636 218.131 22.068 218.563 22.428C219.019 22.764 219.511 23.016 220.039 23.184C220.567 23.328 221.107 23.4 221.659 23.4C222.739 23.4 223.627 23.16 224.323 22.68C225.043 22.176 225.607 21.552 226.015 20.808L229.939 22.752ZM225.655 15.912C225.631 15.6 225.523 15.252 225.331 14.868C225.163 14.484 224.899 14.124 224.539 13.788C224.203 13.452 223.771 13.176 223.243 12.96C222.739 12.744 222.127 12.636 221.407 12.636C220.399 12.636 219.511 12.924 218.743 13.5C217.975 14.076 217.435 14.88 217.123 15.912H225.655ZM241.55 35.352C240.302 35.352 239.186 35.184 238.202 34.848C237.242 34.536 236.402 34.116 235.682 33.588C234.962 33.084 234.362 32.52 233.882 31.896C233.402 31.272 233.054 30.648 232.838 30.024L237.338 28.224C237.674 29.16 238.226 29.88 238.994 30.384C239.762 30.912 240.614 31.176 241.55 31.176C243.038 31.176 244.214 30.708 245.078 29.772C245.942 28.86 246.374 27.576 246.374 25.92V24.696H246.086C245.534 25.464 244.802 26.076 243.89 26.532C243.002 26.964 241.946 27.18 240.722 27.18C239.666 27.18 238.634 26.964 237.626 26.532C236.642 26.1 235.766 25.488 234.998 24.696C234.23 23.88 233.606 22.908 233.126 21.78C232.646 20.652 232.406 19.392 232.406 18C232.406 16.608 232.646 15.348 233.126 14.22C233.606 13.068 234.23 12.096 234.998 11.304C235.766 10.488 236.642 9.864 237.626 9.432C238.634 9 239.666 8.784 240.722 8.784C241.946 8.784 243.002 9.012 243.89 9.468C244.802 9.9 245.534 10.5 246.086 11.268H246.374V9.36H250.874V25.74C250.874 27.228 250.646 28.56 250.19 29.736C249.734 30.936 249.098 31.944 248.282 32.76C247.466 33.6 246.482 34.236 245.33 34.668C244.202 35.124 242.942 35.352 241.55 35.352ZM241.73 22.932C242.306 22.932 242.87 22.824 243.422 22.608C243.998 22.392 244.502 22.08 244.934 21.672C245.366 21.24 245.714 20.724 245.978 20.124C246.242 19.5 246.374 18.792 246.374 18C246.374 17.208 246.242 16.5 245.978 15.876C245.714 15.252 245.366 14.736 244.934 14.328C244.502 13.896 243.998 13.572 243.422 13.356C242.87 13.14 242.306 13.032 241.73 13.032C241.154 13.032 240.59 13.14 240.038 13.356C239.486 13.572 238.994 13.896 238.562 14.328C238.13 14.76 237.782 15.288 237.518 15.912C237.254 16.512 237.122 17.208 237.122 18C237.122 18.792 237.254 19.5 237.518 20.124C237.782 20.724 238.13 21.24 238.562 21.672C238.994 22.08 239.486 22.392 240.038 22.608C240.59 22.824 241.154 22.932 241.73 22.932ZM271.423 22.752C270.607 24.192 269.503 25.356 268.111 26.244C266.743 27.132 265.063 27.576 263.071 27.576C261.727 27.576 260.479 27.348 259.327 26.892C258.199 26.412 257.215 25.752 256.375 24.912C255.535 24.072 254.875 23.088 254.395 21.96C253.939 20.808 253.711 19.548 253.711 18.18C253.711 16.908 253.939 15.708 254.395 14.58C254.851 13.428 255.487 12.432 256.303 11.592C257.119 10.728 258.079 10.044 259.183 9.54C260.311 9.036 261.547 8.784 262.891 8.784C264.307 8.784 265.567 9.024 266.671 9.504C267.775 9.96 268.699 10.608 269.443 11.448C270.187 12.264 270.751 13.236 271.135 14.364C271.519 15.492 271.711 16.716 271.711 18.036C271.711 18.204 271.711 18.348 271.711 18.468C271.687 18.612 271.675 18.744 271.675 18.864C271.651 18.984 271.639 19.116 271.639 19.26H258.355C258.451 19.98 258.643 20.604 258.931 21.132C259.243 21.636 259.615 22.068 260.047 22.428C260.503 22.764 260.995 23.016 261.523 23.184C262.051 23.328 262.591 23.4 263.143 23.4C264.223 23.4 265.111 23.16 265.807 22.68C266.527 22.176 267.091 21.552 267.499 20.808L271.423 22.752ZM267.139 15.912C267.115 15.6 267.007 15.252 266.815 14.868C266.647 14.484 266.383 14.124 266.023 13.788C265.687 13.452 265.255 13.176 264.727 12.96C264.223 12.744 263.611 12.636 262.891 12.636C261.883 12.636 260.995 12.924 260.227 13.5C259.459 14.076 258.919 14.88 258.607 15.912H267.139ZM281.883 27.576C280.731 27.576 279.699 27.432 278.787 27.144C277.899 26.856 277.119 26.484 276.447 26.028C275.799 25.548 275.247 25.008 274.791 24.408C274.335 23.784 273.987 23.16 273.747 22.536L277.959 20.736C278.367 21.648 278.907 22.332 279.579 22.788C280.275 23.22 281.043 23.436 281.883 23.436C282.747 23.436 283.431 23.28 283.935 22.968C284.439 22.656 284.691 22.284 284.691 21.852C284.691 21.372 284.475 20.988 284.043 20.7C283.635 20.388 282.915 20.112 281.883 19.872L279.399 19.332C278.847 19.212 278.271 19.02 277.671 18.756C277.095 18.492 276.567 18.156 276.087 17.748C275.607 17.34 275.211 16.848 274.899 16.272C274.587 15.696 274.431 15.024 274.431 14.256C274.431 13.392 274.611 12.624 274.971 11.952C275.355 11.28 275.871 10.716 276.519 10.26C277.167 9.78 277.923 9.42 278.787 9.18C279.675 8.916 280.623 8.784 281.631 8.784C283.311 8.784 284.811 9.12 286.131 9.792C287.451 10.44 288.423 11.484 289.047 12.924L284.979 14.58C284.643 13.884 284.151 13.38 283.503 13.068C282.855 12.756 282.207 12.6 281.559 12.6C280.887 12.6 280.299 12.744 279.795 13.032C279.291 13.296 279.039 13.644 279.039 14.076C279.039 14.484 279.243 14.808 279.651 15.048C280.083 15.288 280.659 15.504 281.379 15.696L284.079 16.344C285.879 16.776 287.211 17.472 288.075 18.432C288.963 19.368 289.407 20.484 289.407 21.78C289.407 22.548 289.227 23.28 288.867 23.976C288.507 24.672 287.991 25.296 287.319 25.848C286.671 26.376 285.879 26.796 284.943 27.108C284.031 27.42 283.011 27.576 281.883 27.576Z" fill="#7848F4"/>
</svg>
