<svg width="285" height="36" viewBox="0 0 285 36" fill="none" xmlns="http://www.w3.org/2000/svg">
<path d="M10.024 27.576C8.512 27.576 7.132 27.336 5.884 26.856C4.66 26.352 3.616 25.632 2.752 24.696C1.888 23.76 1.216 22.632 0.736 21.312C0.256 19.968 0.0160001 18.444 0.0160001 16.74V1.224H4.876V17.028C4.876 17.892 4.984 18.684 5.2 19.404C5.416 20.124 5.74 20.748 6.172 21.276C6.604 21.804 7.144 22.224 7.792 22.536C8.44 22.824 9.184 22.968 10.024 22.968C10.888 22.968 11.644 22.824 12.292 22.536C12.94 22.224 13.48 21.804 13.912 21.276C14.344 20.748 14.668 20.124 14.884 19.404C15.1 18.684 15.208 17.892 15.208 17.028V1.224H20.068V16.74C20.068 18.348 19.828 19.824 19.348 21.168C18.892 22.488 18.22 23.628 17.332 24.588C16.468 25.524 15.412 26.256 14.164 26.784C12.94 27.312 11.56 27.576 10.024 27.576ZM23.954 9.36H28.382V11.484H28.67C29.102 10.74 29.774 10.104 30.686 9.576C31.598 9.048 32.726 8.784 34.07 8.784C35.198 8.784 36.266 9.024 37.274 9.504C38.306 9.96 39.206 10.608 39.974 11.448C40.766 12.264 41.39 13.248 41.846 14.4C42.302 15.552 42.53 16.812 42.53 18.18C42.53 19.548 42.302 20.808 41.846 21.96C41.39 23.112 40.766 24.108 39.974 24.948C39.206 25.764 38.306 26.412 37.274 26.892C36.266 27.348 35.198 27.576 34.07 27.576C32.726 27.576 31.598 27.312 30.686 26.784C29.774 26.256 29.102 25.62 28.67 24.876H28.382L28.67 27.396V34.776H23.954V9.36ZM33.098 23.22C33.722 23.22 34.31 23.1 34.862 22.86C35.438 22.62 35.942 22.284 36.374 21.852C36.806 21.42 37.154 20.892 37.418 20.268C37.682 19.644 37.814 18.948 37.814 18.18C37.814 17.412 37.682 16.716 37.418 16.092C37.154 15.468 36.806 14.94 36.374 14.508C35.942 14.076 35.438 13.74 34.862 13.5C34.31 13.26 33.722 13.14 33.098 13.14C32.474 13.14 31.874 13.26 31.298 13.5C30.746 13.716 30.254 14.04 29.822 14.472C29.39 14.904 29.042 15.432 28.778 16.056C28.514 16.68 28.382 17.388 28.382 18.18C28.382 18.972 28.514 19.68 28.778 20.304C29.042 20.928 29.39 21.456 29.822 21.888C30.254 22.32 30.746 22.656 31.298 22.896C31.874 23.112 32.474 23.22 33.098 23.22ZM62.2833 22.5C61.5153 23.988 60.4353 25.212 59.0433 26.172C57.6753 27.108 55.9593 27.576 53.8953 27.576C52.5273 27.576 51.2673 27.348 50.1153 26.892C48.9873 26.412 48.0033 25.752 47.1633 24.912C46.3473 24.072 45.6993 23.088 45.2193 21.96C44.7633 20.808 44.5353 19.548 44.5353 18.18C44.5353 16.812 44.7633 15.552 45.2193 14.4C45.6993 13.248 46.3473 12.264 47.1633 11.448C48.0033 10.608 48.9873 9.96 50.1153 9.504C51.2673 9.024 52.5273 8.784 53.8953 8.784C55.9353 8.784 57.6513 9.252 59.0433 10.188C60.4353 11.124 61.4553 12.336 62.1033 13.824L57.7833 15.624C57.3753 14.808 56.8473 14.196 56.1993 13.788C55.5753 13.356 54.7833 13.14 53.8233 13.14C53.1993 13.14 52.6113 13.26 52.0593 13.5C51.5073 13.74 51.0153 14.076 50.5833 14.508C50.1753 14.94 49.8513 15.468 49.6113 16.092C49.3713 16.716 49.2513 17.412 49.2513 18.18C49.2513 18.948 49.3713 19.644 49.6113 20.268C49.8513 20.892 50.1753 21.42 50.5833 21.852C51.0153 22.284 51.5073 22.62 52.0593 22.86C52.6113 23.1 53.1993 23.22 53.8233 23.22C54.8073 23.22 55.6353 23.004 56.3073 22.572C57.0033 22.116 57.5553 21.468 57.9633 20.628L62.2833 22.5ZM73.3368 8.784C74.7048 8.784 75.9528 9.024 77.0808 9.504C78.2328 9.96 79.2168 10.608 80.0328 11.448C80.8728 12.264 81.5208 13.248 81.9767 14.4C82.4568 15.552 82.6968 16.812 82.6968 18.18C82.6968 19.548 82.4568 20.808 81.9767 21.96C81.5208 23.112 80.8728 24.108 80.0328 24.948C79.2168 25.764 78.2328 26.412 77.0808 26.892C75.9528 27.348 74.7048 27.576 73.3368 27.576C71.9688 27.576 70.7088 27.348 69.5568 26.892C68.4288 26.412 67.4448 25.764 66.6048 24.948C65.7888 24.108 65.1408 23.112 64.6608 21.96C64.2048 20.808 63.9768 19.548 63.9768 18.18C63.9768 16.812 64.2048 15.552 64.6608 14.4C65.1408 13.248 65.7888 12.264 66.6048 11.448C67.4448 10.608 68.4288 9.96 69.5568 9.504C70.7088 9.024 71.9688 8.784 73.3368 8.784ZM73.3368 23.22C73.9368 23.22 74.5128 23.112 75.0648 22.896C75.6408 22.656 76.1448 22.32 76.5768 21.888C77.0088 21.456 77.3448 20.928 77.5848 20.304C77.8488 19.68 77.9808 18.972 77.9808 18.18C77.9808 17.388 77.8488 16.68 77.5848 16.056C77.3448 15.432 77.0088 14.904 76.5768 14.472C76.1448 14.04 75.6408 13.716 75.0648 13.5C74.5128 13.26 73.9368 13.14 73.3368 13.14C72.7128 13.14 72.1248 13.26 71.5728 13.5C71.0208 13.716 70.5288 14.04 70.0968 14.472C69.6648 14.904 69.3168 15.432 69.0528 16.056C68.8128 16.68 68.6928 17.388 68.6928 18.18C68.6928 18.972 68.8128 19.68 69.0528 20.304C69.3168 20.928 69.6648 21.456 70.0968 21.888C70.5288 22.32 71.0208 22.656 71.5728 22.896C72.1248 23.112 72.7128 23.22 73.3368 23.22ZM85.3754 9.36H89.8034V11.664H90.0914C90.6434 10.8 91.3874 10.104 92.3234 9.576C93.2834 9.048 94.3394 8.784 95.4914 8.784C96.8354 8.784 97.9634 9.096 98.8754 9.72C99.7874 10.344 100.435 11.112 100.819 12.024C101.371 11.136 102.151 10.38 103.159 9.756C104.167 9.108 105.391 8.784 106.831 8.784C107.911 8.784 108.847 8.964 109.639 9.324C110.431 9.66 111.079 10.14 111.583 10.764C112.111 11.388 112.507 12.144 112.771 13.032C113.035 13.896 113.167 14.844 113.167 15.876V27H108.451V16.74C108.451 14.34 107.467 13.14 105.499 13.14C104.875 13.14 104.323 13.284 103.843 13.572C103.363 13.836 102.955 14.208 102.619 14.688C102.307 15.144 102.055 15.696 101.863 16.344C101.695 16.992 101.611 17.688 101.611 18.432V27H96.8954V16.74C96.8954 14.34 95.8634 13.14 93.7994 13.14C93.1994 13.14 92.6714 13.284 92.2154 13.572C91.7594 13.836 91.3754 14.208 91.0634 14.688C90.7514 15.144 90.5114 15.696 90.3434 16.344C90.1754 16.992 90.0914 17.688 90.0914 18.432V27H85.3754V9.36ZM119.679 6.804C119.271 6.804 118.875 6.732 118.491 6.588C118.131 6.42 117.807 6.204 117.519 5.94C117.255 5.652 117.039 5.328 116.871 4.968C116.727 4.608 116.655 4.212 116.655 3.78C116.655 3.348 116.727 2.952 116.871 2.592C117.039 2.232 117.255 1.92 117.519 1.656C117.807 1.368 118.131 1.152 118.491 1.008C118.875 0.839998 119.271 0.755999 119.679 0.755999C120.519 0.755999 121.239 1.056 121.839 1.656C122.439 2.232 122.739 2.94 122.739 3.78C122.739 4.62 122.439 5.34 121.839 5.94C121.239 6.516 120.519 6.804 119.679 6.804ZM117.339 27V9.36H122.055V27H117.339ZM130.796 11.664H131.084C131.636 10.776 132.38 10.08 133.316 9.576C134.252 9.048 135.32 8.784 136.52 8.784C137.624 8.784 138.596 8.964 139.436 9.324C140.276 9.684 140.96 10.2 141.488 10.872C142.04 11.52 142.448 12.312 142.712 13.248C143 14.16 143.144 15.18 143.144 16.308V27H138.428V16.884C138.428 15.612 138.14 14.676 137.564 14.076C137.012 13.452 136.196 13.14 135.116 13.14C134.468 13.14 133.892 13.284 133.388 13.572C132.908 13.836 132.488 14.208 132.128 14.688C131.792 15.144 131.528 15.696 131.336 16.344C131.168 16.968 131.084 17.64 131.084 18.36V27H126.368V9.36H130.796V11.664ZM155 35.352C153.752 35.352 152.636 35.184 151.652 34.848C150.692 34.536 149.852 34.116 149.132 33.588C148.412 33.084 147.812 32.52 147.332 31.896C146.852 31.272 146.504 30.648 146.288 30.024L150.788 28.224C151.124 29.16 151.676 29.88 152.444 30.384C153.212 30.912 154.064 31.176 155 31.176C156.488 31.176 157.664 30.708 158.528 29.772C159.392 28.86 159.824 27.576 159.824 25.92V24.696H159.536C158.984 25.464 158.252 26.076 157.34 26.532C156.452 26.964 155.396 27.18 154.172 27.18C153.116 27.18 152.084 26.964 151.076 26.532C150.092 26.1 149.216 25.488 148.448 24.696C147.68 23.88 147.056 22.908 146.576 21.78C146.096 20.652 145.856 19.392 145.856 18C145.856 16.608 146.096 15.348 146.576 14.22C147.056 13.068 147.68 12.096 148.448 11.304C149.216 10.488 150.092 9.864 151.076 9.432C152.084 9 153.116 8.784 154.172 8.784C155.396 8.784 156.452 9.012 157.34 9.468C158.252 9.9 158.984 10.5 159.536 11.268H159.824V9.36H164.324V25.74C164.324 27.228 164.096 28.56 163.64 29.736C163.184 30.936 162.548 31.944 161.732 32.76C160.916 33.6 159.932 34.236 158.78 34.668C157.652 35.124 156.392 35.352 155 35.352ZM155.18 22.932C155.756 22.932 156.32 22.824 156.872 22.608C157.448 22.392 157.952 22.08 158.384 21.672C158.816 21.24 159.164 20.724 159.428 20.124C159.692 19.5 159.824 18.792 159.824 18C159.824 17.208 159.692 16.5 159.428 15.876C159.164 15.252 158.816 14.736 158.384 14.328C157.952 13.896 157.448 13.572 156.872 13.356C156.32 13.14 155.756 13.032 155.18 13.032C154.604 13.032 154.04 13.14 153.488 13.356C152.936 13.572 152.444 13.896 152.012 14.328C151.58 14.76 151.232 15.288 150.968 15.912C150.704 16.512 150.572 17.208 150.572 18C150.572 18.792 150.704 19.5 150.968 20.124C151.232 20.724 151.58 21.24 152.012 21.672C152.444 22.08 152.936 22.392 153.488 22.608C154.04 22.824 154.604 22.932 155.18 22.932Z" fill="black"/>
<path d="M181.69 5.832V11.808H192.022V16.416H181.69V22.392H193.174V27H176.83V1.224H193.174V5.832H181.69ZM194.492 9.36H199.856L204.248 20.592H204.5L208.928 9.36H214.256L206.66 27H202.016L194.492 9.36ZM232.579 22.752C231.763 24.192 230.659 25.356 229.267 26.244C227.899 27.132 226.219 27.576 224.227 27.576C222.883 27.576 221.635 27.348 220.483 26.892C219.355 26.412 218.371 25.752 217.531 24.912C216.691 24.072 216.031 23.088 215.551 21.96C215.095 20.808 214.867 19.548 214.867 18.18C214.867 16.908 215.095 15.708 215.551 14.58C216.007 13.428 216.643 12.432 217.459 11.592C218.275 10.728 219.235 10.044 220.339 9.54C221.467 9.036 222.703 8.784 224.047 8.784C225.463 8.784 226.723 9.024 227.827 9.504C228.931 9.96 229.855 10.608 230.599 11.448C231.343 12.264 231.907 13.236 232.291 14.364C232.675 15.492 232.867 16.716 232.867 18.036C232.867 18.204 232.867 18.348 232.867 18.468C232.843 18.612 232.831 18.744 232.831 18.864C232.807 18.984 232.795 19.116 232.795 19.26H219.511C219.607 19.98 219.799 20.604 220.087 21.132C220.399 21.636 220.771 22.068 221.203 22.428C221.659 22.764 222.151 23.016 222.679 23.184C223.207 23.328 223.747 23.4 224.299 23.4C225.379 23.4 226.267 23.16 226.963 22.68C227.683 22.176 228.247 21.552 228.655 20.808L232.579 22.752ZM228.295 15.912C228.271 15.6 228.163 15.252 227.971 14.868C227.803 14.484 227.539 14.124 227.179 13.788C226.843 13.452 226.411 13.176 225.883 12.96C225.379 12.744 224.767 12.636 224.047 12.636C223.039 12.636 222.151 12.924 221.383 13.5C220.615 14.076 220.075 14.88 219.763 15.912H228.295ZM240.307 11.664H240.595C241.147 10.776 241.891 10.08 242.827 9.576C243.763 9.048 244.831 8.784 246.031 8.784C247.135 8.784 248.107 8.964 248.947 9.324C249.787 9.684 250.471 10.2 250.999 10.872C251.551 11.52 251.959 12.312 252.223 13.248C252.511 14.16 252.655 15.18 252.655 16.308V27H247.939V16.884C247.939 15.612 247.651 14.676 247.075 14.076C246.523 13.452 245.707 13.14 244.627 13.14C243.979 13.14 243.403 13.284 242.899 13.572C242.419 13.836 241.999 14.208 241.639 14.688C241.303 15.144 241.039 15.696 240.847 16.344C240.679 16.968 240.595 17.64 240.595 18.36V27H235.879V9.36H240.307V11.664ZM257.581 13.392H254.485V9.36H257.581V3.96H262.297V9.36H266.617V13.392H262.297V20.232C262.297 20.64 262.333 21.024 262.405 21.384C262.501 21.72 262.669 22.008 262.909 22.248C263.245 22.632 263.725 22.824 264.349 22.824C264.757 22.824 265.081 22.788 265.321 22.716C265.561 22.62 265.789 22.5 266.005 22.356L267.337 26.496C266.785 26.76 266.185 26.952 265.537 27.072C264.913 27.216 264.217 27.288 263.449 27.288C262.561 27.288 261.757 27.156 261.037 26.892C260.341 26.604 259.753 26.22 259.273 25.74C258.145 24.66 257.581 23.124 257.581 21.132V13.392ZM277.422 27.576C276.27 27.576 275.238 27.432 274.326 27.144C273.438 26.856 272.658 26.484 271.986 26.028C271.338 25.548 270.786 25.008 270.33 24.408C269.874 23.784 269.526 23.16 269.286 22.536L273.498 20.736C273.906 21.648 274.446 22.332 275.118 22.788C275.814 23.22 276.582 23.436 277.422 23.436C278.286 23.436 278.97 23.28 279.474 22.968C279.978 22.656 280.23 22.284 280.23 21.852C280.23 21.372 280.014 20.988 279.582 20.7C279.174 20.388 278.454 20.112 277.422 19.872L274.938 19.332C274.386 19.212 273.81 19.02 273.21 18.756C272.634 18.492 272.106 18.156 271.626 17.748C271.146 17.34 270.75 16.848 270.438 16.272C270.126 15.696 269.97 15.024 269.97 14.256C269.97 13.392 270.15 12.624 270.51 11.952C270.894 11.28 271.41 10.716 272.058 10.26C272.706 9.78 273.462 9.42 274.326 9.18C275.214 8.916 276.162 8.784 277.17 8.784C278.85 8.784 280.35 9.12 281.67 9.792C282.99 10.44 283.962 11.484 284.586 12.924L280.518 14.58C280.182 13.884 279.69 13.38 279.042 13.068C278.394 12.756 277.746 12.6 277.098 12.6C276.426 12.6 275.838 12.744 275.334 13.032C274.83 13.296 274.578 13.644 274.578 14.076C274.578 14.484 274.782 14.808 275.19 15.048C275.622 15.288 276.198 15.504 276.918 15.696L279.618 16.344C281.418 16.776 282.75 17.472 283.614 18.432C284.502 19.368 284.946 20.484 284.946 21.78C284.946 22.548 284.766 23.28 284.406 23.976C284.046 24.672 283.53 25.296 282.858 25.848C282.21 26.376 281.418 26.796 280.482 27.108C279.57 27.42 278.55 27.576 277.422 27.576Z" fill="#7848F4"/>
</svg>
