<svg width="58" height="58" viewBox="0 0 58 58" fill="none" xmlns="http://www.w3.org/2000/svg">
<path d="M40.6438 11.4566C39.3217 9.07448 37.7376 7.86719 35.9349 7.86719C33.8608 7.86719 31.7067 9.5004 29.5304 12.7225C29.26 13.1236 28.9997 13.5314 28.7498 13.9456C28.5 13.5313 28.2398 13.1235 27.9692 12.7225C25.7937 9.5004 23.6388 7.86719 21.5646 7.86719C19.7628 7.86719 18.1779 9.07448 16.8558 11.4566C15.8678 13.2394 15.9493 14.6391 16.4219 15.3983C17.2746 16.7679 19.454 17.5714 22.5209 18.0987C24.8762 18.5048 27.3675 18.565 28.6437 18.565H28.8567C30.132 18.565 32.6242 18.5048 34.9786 18.0987C38.0447 17.5714 40.2242 16.7671 41.0776 15.3983C41.5487 14.6383 41.6326 13.2394 40.6438 11.4566Z" fill="#D22F27"/>
<path d="M12.9165 28.8555H43.7915V48.6471H12.9165V28.8555Z" fill="#FCEA2B"/>
<path d="M42.518 28.4609L13.7085 28.5069V32.861L35.1967 35.9715L43.7918 37.1693V28.5069L42.518 28.4609Z" fill="#F1B31C"/>
<path d="M23.7734 47.8569H33.7263V35.4064L23.7734 33.4375V47.8569Z" fill="#EA5A47"/>
<path d="M11.3335 16.9805H46.1668V28.0638H11.3335V16.9805Z" fill="#FCEA2B"/>
<path d="M23.7734 17.7734H33.7255V28.0651H23.7734V17.7734Z" fill="#EA5A47"/>
<path d="M33.7263 28.4609L23.7734 28.4768V34.2987L33.7263 35.7498V28.4609Z" fill="#D22F27"/>
<path d="M13.1995 28.4608H11.3335V17.2643H13.9903H43.0722H46.1668V28.4608H44.3009V48.3657H13.1995V28.4608ZM13.1995 28.4608H44.9231M40.5943 14.8046C40.8983 14.0287 40.9838 12.9101 40.2064 11.4566C38.9334 9.07448 37.407 7.86719 35.6717 7.86719C33.6727 7.86719 31.5978 9.5004 29.5015 12.7225C29.2407 13.1239 28.9899 13.5318 28.7494 13.9456C28.5092 13.5317 28.2587 13.1238 27.9981 12.7225C25.9025 9.5004 23.8268 7.86719 21.8286 7.86719C20.0925 7.86719 18.567 9.07448 17.2924 11.4566C16.5791 12.7945 16.5933 13.8482 16.838 14.613" stroke="black" stroke-width="2" stroke-miterlimit="10" stroke-linecap="round" stroke-linejoin="round"/>
<path d="M33.7268 47.8568V35.4062M23.7739 33.4374V47.8568M33.7268 28.0651V17.7734M23.7739 17.7734V28.0651M33.7268 35.7498V28.4609L23.7739 28.4768V34.2987" stroke="black" stroke-width="2" stroke-miterlimit="10"/>
</svg>
