<svg width="42" height="32" viewBox="0 0 42 32" fill="none" xmlns="http://www.w3.org/2000/svg">
<g clip-path="url(#clip0_174_16010)">
<path d="M8.20355 31.8394V29.7215C8.20355 28.9094 7.71123 28.38 6.86736 28.38C6.44551 28.38 5.98843 28.5212 5.67196 28.9802C5.42596 28.5918 5.07441 28.38 4.54702 28.38C4.19532 28.38 3.84393 28.4859 3.56254 28.8742V28.4506H2.82422V31.8394H3.56254V29.9685C3.56254 29.3685 3.87901 29.086 4.37133 29.086C4.86333 29.086 5.10965 29.4037 5.10965 29.9685V31.8394H5.84797V29.9685C5.84797 29.3685 6.19935 29.086 6.65644 29.086C7.14876 29.086 7.39476 29.4037 7.39476 29.9685V31.8394H8.20355ZM19.1376 28.4506H17.9423V27.427H17.204V28.4506H16.536V29.1212H17.2038V30.6746C17.2038 31.4512 17.5203 31.91 18.3642 31.91C18.6806 31.91 19.032 31.8042 19.2784 31.663L19.0673 31.0275C18.8563 31.1687 18.6103 31.2041 18.4345 31.2041C18.0829 31.2041 17.9423 30.9923 17.9423 30.6392V29.1212H19.1376V28.4506ZM25.3958 28.3799C24.974 28.3799 24.6928 28.5918 24.5169 28.8742V28.4506H23.7786V31.8394H24.5169V29.9333C24.5169 29.3685 24.7629 29.0508 25.22 29.0508C25.3606 29.0508 25.5365 29.0861 25.6771 29.1214L25.888 28.4154C25.7474 28.38 25.5365 28.38 25.3958 28.38M15.9383 28.7332C15.5866 28.486 15.0944 28.3802 14.567 28.3802C13.7233 28.3802 13.1609 28.8038 13.1609 29.4745C13.1609 30.0394 13.5827 30.357 14.321 30.4629L14.6726 30.4983C15.0594 30.5688 15.2703 30.6747 15.2703 30.8513C15.2703 31.0983 14.989 31.2748 14.4967 31.2748C14.0046 31.2748 13.6178 31.0983 13.3716 30.9219L13.0201 31.4866C13.4069 31.769 13.9343 31.9102 14.4615 31.9102C15.446 31.9102 16.0086 31.4514 16.0086 30.8159C16.0086 30.2158 15.5515 29.898 14.8483 29.7922L14.4967 29.7569C14.1803 29.7215 13.9343 29.651 13.9343 29.4393C13.9343 29.1921 14.1803 29.0509 14.567 29.0509C14.989 29.0509 15.4109 29.2273 15.6218 29.3333L15.9383 28.7332ZM35.5566 28.3802C35.1346 28.3802 34.8534 28.592 34.6775 28.8744V28.4508H33.9392V31.8396H34.6775V29.9334C34.6775 29.3687 34.9237 29.0509 35.3806 29.0509C35.5214 29.0509 35.6973 29.0863 35.8379 29.1215L36.0488 28.4156C35.9082 28.3802 35.6973 28.3802 35.5566 28.3802ZM26.1342 30.1452C26.1342 31.1689 26.8372 31.9102 27.9273 31.9102C28.4194 31.9102 28.771 31.8044 29.1225 31.522L28.771 30.9219C28.4897 31.1337 28.2085 31.2395 27.892 31.2395C27.2943 31.2395 26.8725 30.8159 26.8725 30.1452C26.8725 29.5099 27.2943 29.0861 27.892 29.0509C28.2085 29.0509 28.4897 29.1567 28.771 29.3687L29.1225 28.7686C28.771 28.486 28.4194 28.3802 27.9273 28.3802C26.8372 28.3802 26.1342 29.1215 26.1342 30.1452ZM32.9549 30.1452V28.4508H32.2166V28.8744C31.9704 28.5568 31.6189 28.3802 31.1618 28.3802C30.2125 28.3802 29.4742 29.1215 29.4742 30.1452C29.4742 31.1689 30.2125 31.9102 31.1618 31.9102C31.6539 31.9102 32.0056 31.7338 32.2166 31.416V31.8396H32.9549V30.1452ZM30.2476 30.1452C30.2476 29.5451 30.6344 29.0509 31.2672 29.0509C31.8649 29.0509 32.2869 29.5099 32.2869 30.1452C32.2869 30.7453 31.8649 31.2395 31.2672 31.2395C30.6344 31.2041 30.2476 30.7453 30.2476 30.1452ZM21.423 28.3802C20.4385 28.3802 19.7353 29.0861 19.7353 30.1452C19.7353 31.2043 20.4384 31.9102 21.4581 31.9102C21.9502 31.9102 22.4426 31.769 22.8293 31.4514L22.4776 30.9219C22.1964 31.1337 21.8449 31.2748 21.4933 31.2748C21.0362 31.2748 20.5791 31.0631 20.4736 30.4628H22.97V30.1806C23.0052 29.0861 22.3724 28.3802 21.423 28.3802ZM21.4228 29.0155C21.8798 29.0155 22.1964 29.2981 22.2665 29.8276H20.5087C20.579 29.3687 20.8955 29.0155 21.4228 29.0155ZM39.7402 30.1452V27.1094H39.0019V28.8744C38.7558 28.5568 38.4042 28.3802 37.9471 28.3802C36.9979 28.3802 36.2596 29.1215 36.2596 30.1452C36.2596 31.1689 36.9979 31.9102 37.9471 31.9102C38.4394 31.9102 38.791 31.7338 39.0019 31.416V31.8396H39.7402V30.1452ZM37.0331 30.1452C37.0331 29.5451 37.4197 29.0509 38.0527 29.0509C38.6504 29.0509 39.0722 29.5099 39.0722 30.1452C39.0722 30.7453 38.6504 31.2395 38.0527 31.2395C37.4197 31.2041 37.0331 30.7453 37.0331 30.1452ZM12.3519 30.1452V28.4508H11.6136V28.8744C11.3674 28.5568 11.0159 28.3802 10.5588 28.3802C9.60956 28.3802 8.87124 29.1215 8.87124 30.1452C8.87124 31.1689 9.60956 31.9102 10.5588 31.9102C11.0511 31.9102 11.4027 31.7338 11.6136 31.416V31.8396H12.3519V30.1452ZM9.60956 30.1452C9.60956 29.5451 9.99634 29.0509 10.6291 29.0509C11.2268 29.0509 11.6488 29.5099 11.6488 30.1452C11.6488 30.7453 11.2268 31.2395 10.6291 31.2395C9.99634 31.2041 9.60956 30.7453 9.60956 30.1452Z" fill="black"/>
<path d="M15.6924 2.71875H26.7672V22.6988H15.6924V2.71875Z" fill="#FF5F00"/>
<path d="M16.3955 12.7082C16.3955 8.64868 18.294 5.04796 21.212 2.71807C19.0676 1.02368 16.3604 0 13.4071 0C6.4104 0 0.75 5.6833 0.75 12.7082C0.75 19.7329 6.4104 25.4164 13.407 25.4164C16.3603 25.4164 19.0674 24.3927 21.212 22.6981C18.294 20.4036 16.3955 16.7677 16.3955 12.7082Z" fill="#EB001B"/>
<path d="M41.7091 12.7082C41.7091 19.7329 36.0487 25.4164 29.0521 25.4164C26.0988 25.4164 23.3917 24.3927 21.2471 22.6981C24.2004 20.3684 26.0638 16.7677 26.0638 12.7082C26.0638 8.64868 24.1651 5.04796 21.2471 2.71807C23.3916 1.02368 26.0988 0 29.0521 0C36.0487 0 41.7091 5.71867 41.7091 12.7082Z" fill="#F79E1B"/>
</g>
<defs>
<clipPath id="clip0_174_16010">
<rect width="41" height="32" fill="white" transform="translate(0.75)"/>
</clipPath>
</defs>
</svg>
