<svg width="125" height="31" viewBox="0 0 125 31" fill="none" xmlns="http://www.w3.org/2000/svg">
<path d="M47.9736 13.0187C47.6523 15.428 45.7248 15.428 43.958 15.428H42.9942L43.7974 10.7699C43.7974 10.4487 44.1186 10.2881 44.4398 10.2881H44.9217C46.2067 10.2881 47.3311 10.2881 47.9736 10.9306C47.9736 11.5731 47.9736 12.2155 47.9736 13.0187ZM47.1704 6.59375H40.2637C39.7818 6.59375 39.4606 6.915 39.2999 7.39686L36.5693 25.0654C36.5693 25.3866 36.73 25.7079 37.2118 25.7079H40.4243C40.9062 25.7079 41.2274 25.3866 41.388 24.9047L42.1911 20.0861C42.1911 19.6042 42.673 19.2829 43.1549 19.2829H45.4036C49.901 19.2829 52.471 17.0342 53.2741 12.6974C53.5953 10.7699 53.2741 9.32434 52.471 8.19998C51.186 7.23624 49.4192 6.59375 47.1704 6.59375Z" fill="#263577"/>
<path d="M63.0728 19.4415C62.7515 21.3689 61.3059 22.6539 59.3785 22.6539C58.4147 22.6539 57.6116 22.3327 57.1297 21.6902C56.6479 21.0477 56.4872 20.2446 56.6479 19.4415C56.9691 17.514 58.4147 16.229 60.3422 16.229C61.3059 16.229 62.109 16.5503 62.5909 17.1927C62.9122 17.6746 63.2334 18.4777 63.0728 19.4415ZM67.5702 13.0166H64.3578C64.0365 13.0166 63.8759 13.1772 63.7152 13.4984L63.5547 14.4622L63.394 14.1409C62.7515 13.1772 61.1453 12.6953 59.5391 12.6953C55.8448 12.6953 52.7929 15.4259 52.1504 19.2808C51.8292 21.2083 52.311 22.9752 53.4354 24.2601C54.3991 25.3845 55.8447 25.8664 57.6116 25.8664C60.5028 25.8664 62.109 23.9389 62.109 23.9389L61.9484 24.9026C61.9484 25.2239 62.109 25.5451 62.5909 25.5451H65.4821C65.964 25.5451 66.2852 25.2239 66.4458 24.742L68.2127 13.4984C68.2127 13.3378 68.0521 13.0166 67.5702 13.0166Z" fill="#263577"/>
<path d="M85.0792 13.0078H81.7061C81.3849 13.0078 81.0636 13.1684 80.903 13.4897L76.4056 20.2358L74.4781 13.8109C74.3175 13.3291 73.9962 13.1684 73.5144 13.1684H70.3019C69.9807 13.1684 69.6594 13.4897 69.8201 13.9715L73.5144 24.5726L70.1413 29.3913C69.82 29.7126 70.1413 30.3551 70.6232 30.3551H73.9963C74.3175 30.3551 74.6388 30.1944 74.7994 29.8732L85.7217 13.9715C85.8823 13.4897 85.5611 13.0078 85.0792 13.0078Z" fill="#263577"/>
<path d="M96.8031 13.0187C96.4819 15.428 94.5544 15.428 92.7876 15.428H91.8238L92.6269 10.7699C92.6269 10.4487 92.9482 10.2881 93.2695 10.2881H93.7513C95.0363 10.2881 96.1607 10.2881 96.8031 10.9306C96.9638 11.5731 96.9638 12.2155 96.8031 13.0187ZM96 6.59375H89.0933C88.6114 6.59375 88.2902 6.915 88.1295 7.39686L85.3989 25.0654C85.3989 25.3866 85.5596 25.7079 86.0415 25.7079H89.5751C89.8964 25.7079 90.2176 25.5472 90.2176 25.0654L91.0207 20.0861C91.0207 19.6042 91.5026 19.2829 91.9845 19.2829H94.2332C98.7306 19.2829 101.301 17.0342 102.104 12.6974C102.425 10.7699 102.104 9.32434 101.301 8.19998C100.176 7.23624 98.4094 6.59375 96 6.59375Z" fill="#2199D6"/>
<path d="M112.062 19.4415C111.741 21.3689 110.295 22.6539 108.368 22.6539C107.404 22.6539 106.601 22.3327 106.119 21.6902C105.637 21.0477 105.476 20.2446 105.637 19.4415C105.958 17.514 107.404 16.229 109.331 16.229C110.295 16.229 111.098 16.5503 111.58 17.1927C111.901 17.6746 112.223 18.4777 112.062 19.4415ZM116.559 13.0166H113.347C113.026 13.0166 112.865 13.1772 112.704 13.4984L112.544 14.4622L112.383 14.1409C111.741 13.1772 110.135 12.6953 108.528 12.6953C104.834 12.6953 101.782 15.4259 101.14 19.2808C100.818 21.2083 101.3 22.9752 102.425 24.2601C103.388 25.3845 104.834 25.8664 106.601 25.8664C109.492 25.8664 111.098 23.9389 111.098 23.9389L110.938 24.9026C110.938 25.2239 111.098 25.5451 111.58 25.5451H114.471C114.953 25.5451 115.274 25.2239 115.435 24.742L117.202 13.4984C117.202 13.3378 116.881 13.0166 116.559 13.0166Z" fill="#2199D6"/>
<path d="M120.413 7.07562L117.522 25.0654C117.522 25.3866 117.683 25.7079 118.165 25.7079H121.056C121.538 25.7079 121.859 25.3866 122.019 24.9047L124.75 7.23624C124.75 6.915 124.589 6.59375 124.108 6.59375H120.895C120.734 6.59375 120.574 6.91499 120.413 7.07562Z" fill="#2199D6"/>
<path d="M7.97865 29.0699L8.4605 25.6968H7.33615H1.71436L5.56931 1.12156C5.56931 1.12156 5.5693 0.960938 5.72992 0.960938H5.89055H15.3673C18.4191 0.960938 20.6678 1.60343 21.7922 2.88841C22.2741 3.5309 22.5953 4.17339 22.7559 4.81588C22.9166 5.619 22.9166 6.42211 22.7559 7.54647V8.18896L23.2378 8.51021C23.7197 8.67083 24.0409 8.99207 24.3622 9.31332C24.844 9.79519 25.1653 10.4377 25.1653 11.2408C25.3259 12.0439 25.3259 13.0076 25.0046 14.132C24.6834 15.417 24.3622 16.3807 23.8803 17.3444C23.3984 18.1476 22.7559 18.7901 22.1134 19.4325C21.4709 19.9144 20.5072 20.2357 19.7041 20.5569C18.7404 20.7175 17.7766 20.8782 16.6523 20.8782H15.8492C15.3673 20.8782 14.8854 21.0388 14.4036 21.36C14.0823 21.6813 13.7611 22.1631 13.6004 22.645V22.9662L12.6367 28.9093V29.0699V29.2305C12.6367 29.2305 12.6367 29.2305 12.4761 29.2305H7.97865V29.0699Z" fill="#263577"/>
<path d="M23.8795 7.55469C23.8795 7.71531 23.8795 7.87594 23.7189 8.03656C22.4339 14.4615 18.2578 16.5496 12.7966 16.5496H10.066C9.42349 16.5496 8.78102 17.0314 8.78102 17.6739L7.3354 26.6688L7.01416 29.2387C7.01416 29.7206 7.3354 30.0419 7.65664 30.0419H12.636C13.2784 30.0419 13.7603 29.56 13.7603 29.0781V28.7569L14.7241 22.9745V22.6532C14.8847 22.0107 15.3665 21.6895 15.8484 21.6895H16.6515C21.4702 21.6895 25.1645 19.762 26.1283 14.1402C26.6101 11.7309 26.2889 9.80341 25.1645 8.51843C24.8433 8.19718 24.3614 7.87593 23.8795 7.55469Z" fill="#2199D6"/>
<path d="M22.5962 7.07562C22.4356 7.07562 22.275 6.915 21.9538 6.915C21.7931 6.915 21.4719 6.75437 21.3113 6.75437C20.5082 6.59375 19.705 6.59375 18.9019 6.59375H11.5133C11.3527 6.59375 11.192 6.59375 11.0314 6.75437C10.7102 6.91499 10.3889 7.23624 10.3889 7.55748L8.78271 17.5161V17.8373C8.94334 17.1948 9.42519 16.713 10.0677 16.713H12.7983C18.2595 16.713 22.4356 14.4643 23.7206 8.19998C23.7206 8.03935 23.7206 7.87873 23.8812 7.71811C23.56 7.55749 23.2387 7.39687 22.9175 7.23624C22.7569 7.07562 22.5962 7.07562 22.5962 7.07562Z" fill="#252C5E"/>
<path d="M10.3878 7.54926C10.3878 7.22802 10.7091 6.90677 11.0303 6.74615C11.191 6.74615 11.3516 6.58553 11.5122 6.58553H18.9008C19.7039 6.58553 20.6677 6.58553 21.3102 6.74615C21.4708 6.74615 21.7921 6.74615 21.9527 6.90677C22.1133 6.90677 22.2739 7.06739 22.5952 7.06739C22.7558 7.06739 22.7558 7.0674 22.9164 7.22802C23.2376 7.38864 23.5589 7.54927 23.8801 7.70989C24.2014 5.30055 23.8801 3.69432 22.5952 2.24871C21.1496 0.642487 18.5796 0 15.3671 0H5.89041C5.24792 0 4.60542 0.481863 4.60542 1.12435L0.750488 25.8603C0.750488 26.3421 1.07173 26.824 1.5536 26.824H7.336L8.78162 17.5079L10.3878 7.54926Z" fill="#263577"/>
</svg>
