<svg width="100" height="47" viewBox="0 0 100 47" fill="none" xmlns="http://www.w3.org/2000/svg">
<path d="M9.73425 33.9861H10.3433L9.77293 36.4045C9.68591 36.7599 9.70525 37.0363 9.82127 37.214C9.93728 37.3916 10.15 37.4805 10.469 37.4805C10.7784 37.4805 11.0394 37.3916 11.2425 37.214C11.4455 37.0363 11.5808 36.7599 11.6678 36.4045L12.2383 33.9861H12.857L12.2769 36.4637C12.1512 36.9968 11.9289 37.4015 11.6002 37.668C11.2811 37.9346 10.8557 38.0728 10.3337 38.0728C9.8116 38.0728 9.45388 37.9444 9.26052 37.6779C9.06716 37.4114 9.02849 37.0067 9.15418 36.4736L9.73425 33.9861ZM12.77 37.9642L13.7368 33.8281L15.5737 36.2565C15.622 36.3256 15.6704 36.3946 15.7187 36.4736C15.7671 36.5526 15.8154 36.6414 15.8734 36.7401L16.5212 33.9861H17.0916L16.1248 38.1122L14.2492 35.6346L14.1042 35.4273C14.0558 35.3483 14.0172 35.2792 13.9882 35.1904L13.3404 37.9543H12.77V37.9642ZM17.0432 37.9642L17.9714 33.9861H18.5901L17.662 37.9642H17.0432ZM18.5418 37.9642L19.4699 33.9861H21.5872L21.4615 34.5389H19.963L19.7309 35.526H21.2295L21.0941 36.0886H19.5956L19.1605 37.9543H18.5418V37.9642ZM21.3455 37.9642L22.2736 33.9861H22.8924L21.9642 37.9642H21.3455ZM22.844 37.9642L23.7721 33.9861H25.8894L25.7637 34.5389H24.2652L24.0332 35.5358H25.5317L25.3964 36.0985H23.8978L23.5981 37.3818H25.0967L24.9613 37.9642H22.844ZM25.6767 37.9642L26.6049 33.9861H27.4363C27.9777 33.9861 28.3548 34.0157 28.5578 34.0749C28.7608 34.1341 28.9348 34.223 29.0702 34.3612C29.2442 34.5389 29.3602 34.7659 29.4086 35.0324C29.4569 35.3088 29.4376 35.6247 29.3602 35.9702C29.2732 36.3255 29.1475 36.6316 28.9735 36.908C28.7995 37.1843 28.5771 37.4015 28.3161 37.5792C28.1227 37.7174 27.91 37.8062 27.678 37.8655C27.4556 37.9247 27.1173 37.9543 26.6725 37.9543H25.6767V37.9642ZM26.4308 37.3719H26.9529C27.2333 37.3719 27.4556 37.3522 27.6103 37.3127C27.765 37.2732 27.9004 37.2041 28.0261 37.1152C28.2001 36.9869 28.3451 36.829 28.4611 36.6316C28.5771 36.444 28.6641 36.217 28.7221 35.9603C28.7802 35.7037 28.7995 35.4865 28.7705 35.2989C28.7415 35.1114 28.6738 34.9436 28.5578 34.8152C28.4708 34.7165 28.3644 34.6573 28.2194 34.6178C28.0744 34.5783 27.852 34.5586 27.533 34.5586H27.0883L26.4308 37.3719ZM32.2026 36.1775L31.7869 37.9642H31.2068L32.1349 33.9861H33.0727C33.3531 33.9861 33.5465 34.0058 33.6721 34.0354C33.7978 34.065 33.8945 34.1144 33.9719 34.1934C34.0685 34.2822 34.1362 34.4105 34.1652 34.5685C34.1942 34.7264 34.1845 34.8942 34.1459 35.0818C34.0975 35.2693 34.0299 35.447 33.9235 35.6049C33.8172 35.7629 33.6915 35.8912 33.5561 35.9801C33.4401 36.0492 33.3144 36.1084 33.1791 36.138C33.0437 36.1676 32.831 36.1874 32.5603 36.1874H32.2026V36.1775ZM32.367 35.6444H32.5217C32.86 35.6444 33.1017 35.6049 33.2371 35.526C33.3724 35.447 33.4595 35.3088 33.5078 35.1114C33.5561 34.9041 33.5271 34.7462 33.4304 34.6672C33.3241 34.5783 33.1114 34.5389 32.7924 34.5389H32.6377L32.367 35.6444ZM36.2438 37.9642L36.0505 36.9376H34.5423L33.8655 37.9642H33.2178L36.0215 33.8281L36.8916 37.9642H36.2438ZM34.9096 36.3946H35.9635L35.7894 35.4865C35.7798 35.4273 35.7701 35.3582 35.7701 35.2891C35.7604 35.2101 35.7604 35.1311 35.7604 35.0423C35.7218 35.1311 35.6831 35.2101 35.6347 35.2891C35.5961 35.368 35.5574 35.4371 35.5187 35.4964L34.9096 36.3946ZM37.781 37.9642L38.2064 36.1479L37.433 33.9959H38.0807L38.5641 35.3483C38.5738 35.3878 38.5835 35.4273 38.6028 35.4865C38.6221 35.5457 38.6318 35.6049 38.6512 35.6642L38.7672 35.4865C38.8058 35.4273 38.8445 35.3779 38.8832 35.3286L40.0143 33.9959H40.6331L38.8252 36.138L38.3998 37.9543H37.781V37.9642ZM43.6688 35.9998C43.6688 35.9702 43.6785 35.8813 43.6978 35.7431C43.7075 35.6247 43.7172 35.5359 43.7268 35.4569C43.6882 35.5457 43.6495 35.6346 43.6012 35.7333C43.5528 35.8221 43.4948 35.9208 43.4271 36.0097L41.9383 38.132L41.4549 35.9702C41.4355 35.8813 41.4162 35.7925 41.4065 35.7135C41.3969 35.6346 41.3872 35.5457 41.3872 35.4668C41.3679 35.5457 41.3388 35.6346 41.3098 35.7333C41.2808 35.8221 41.2422 35.9208 41.1938 36.0195L40.3237 37.974H39.7533L41.6192 33.8281L42.151 36.3354C42.1606 36.3749 42.1703 36.444 42.18 36.5328C42.1896 36.6217 42.209 36.7401 42.2283 36.8783C42.296 36.7599 42.383 36.6217 42.499 36.444C42.528 36.3946 42.557 36.365 42.5667 36.3354L44.2489 33.8281L44.1909 37.974H43.6205L43.6688 35.9998ZM44.6936 37.9642L45.6218 33.9861H47.739L47.6134 34.5389H46.1148L45.8828 35.5358H47.3813L47.246 36.0985H45.7474L45.4477 37.3818H46.9463L46.8109 37.9642H44.6936ZM47.5167 37.9642L48.4835 33.8281L50.3204 36.2565C50.3687 36.3256 50.4171 36.3946 50.4654 36.4736C50.5138 36.5526 50.5621 36.6414 50.6201 36.7401L51.2679 33.9861H51.8383L50.8715 38.1122L48.9959 35.6346L48.8509 35.4273C48.8025 35.3483 48.7638 35.2792 48.7348 35.1904L48.0871 37.9543H47.5167V37.9642ZM53.8105 34.529L53.0081 37.9543H52.3893L53.1918 34.529H52.1863L52.312 33.9762H54.9417L54.816 34.529H53.8105ZM54.4583 37.1646L55.0094 36.9277C55.019 37.1054 55.0674 37.2436 55.1737 37.3324C55.2801 37.4213 55.4251 37.4706 55.6184 37.4706C55.8021 37.4706 55.9568 37.4213 56.0922 37.3127C56.2275 37.2041 56.3145 37.0659 56.3532 36.8882C56.4112 36.6513 56.2759 36.444 55.9471 36.2663C55.8988 36.2367 55.8698 36.217 55.8408 36.2071C55.4734 35.9899 55.2414 35.8024 55.1447 35.6247C55.048 35.447 55.0287 35.2397 55.0867 34.9929C55.164 34.6672 55.3284 34.4105 55.5894 34.2032C55.8505 34.0058 56.1405 33.8972 56.4886 33.8972C56.7689 33.8972 56.9913 33.9565 57.1556 34.065C57.32 34.1736 57.407 34.3414 57.436 34.5487L56.8946 34.8054C56.8463 34.6771 56.7883 34.5882 56.7109 34.529C56.6336 34.4698 56.5369 34.4401 56.4209 34.4401C56.2565 34.4401 56.1115 34.4895 55.9955 34.5783C55.8795 34.6672 55.8021 34.7856 55.7635 34.9436C55.7055 35.1805 55.8698 35.4075 56.2469 35.6148C56.2759 35.6346 56.2952 35.6444 56.3145 35.6543C56.6432 35.832 56.8656 36.0097 56.9623 36.1874C57.059 36.365 57.0783 36.5723 57.0203 36.8389C56.9333 37.214 56.7496 37.5101 56.4692 37.7371C56.1888 37.9543 55.8601 38.0728 55.4734 38.0728C55.1544 38.0728 54.903 37.9938 54.729 37.8359C54.5356 37.6779 54.4486 37.4509 54.4583 37.1646ZM59.0119 37.9642L59.94 33.9861H60.5588L59.6306 37.9642H59.0119ZM60.5201 37.9642L61.4869 33.8281L63.3238 36.2565C63.3722 36.3256 63.4205 36.3946 63.4688 36.4736C63.5172 36.5526 63.5655 36.6414 63.6235 36.7401L64.2713 33.9861H64.8417L63.8749 38.1122L61.9993 35.6346L61.8543 35.4273C61.8059 35.3483 61.7673 35.2792 61.7383 35.1904L61.0905 37.9543H60.5201V37.9642ZM66.8139 34.529L66.0115 37.9543H65.3928L66.1952 34.529H65.1897L65.3154 33.9762H67.9451L67.8194 34.529H66.8139ZM67.481 37.9642L68.4092 33.9861H70.5361L70.4104 34.5389H68.9119L68.6799 35.5358H70.1784L70.0431 36.0985H68.5445L68.2448 37.3818H69.7433L69.608 37.9642H67.481ZM71.2999 36.1775L70.8842 37.9543H70.3041L71.2322 33.9762H72.0927C72.344 33.9762 72.5374 33.9959 72.6631 34.0255C72.7984 34.0552 72.9048 34.1144 72.9821 34.1934C73.0788 34.2921 73.1368 34.4105 73.1658 34.5685C73.1948 34.7165 73.1851 34.8843 73.1465 35.0719C73.0691 35.3878 72.9434 35.6444 72.7501 35.8221C72.5567 35.9998 72.315 36.1084 72.025 36.1479L72.9048 37.9543H72.2087L71.3676 36.1775H71.2999ZM71.4546 35.674H71.5706C71.8993 35.674 72.1217 35.6346 72.2473 35.5556C72.373 35.4766 72.46 35.3384 72.5084 35.1311C72.5567 34.914 72.5374 34.756 72.4407 34.6672C72.344 34.5783 72.141 34.529 71.8316 34.529H71.7156L71.4546 35.674ZM73.2818 37.9642L74.2099 33.9861H76.3272L76.2015 34.5389H74.703L74.471 35.526H75.9695L75.8342 36.0886H74.3356L73.9006 37.9543H73.2818V37.9642ZM78.3865 37.9642L78.1932 36.9376H76.6849L76.0082 37.9642H75.3604L78.1641 33.8281L79.0343 37.9642H78.3865ZM77.0427 36.3946H78.0965L77.9224 35.4865C77.9128 35.4273 77.9031 35.3582 77.9031 35.2891C77.8934 35.2101 77.8934 35.1311 77.8934 35.0423C77.8548 35.1311 77.8161 35.2101 77.7678 35.2891C77.7291 35.368 77.6904 35.4371 77.6517 35.4964L77.0427 36.3946ZM83.0561 34.9534C82.9208 34.7955 82.7564 34.6771 82.5824 34.608C82.4084 34.529 82.215 34.4895 81.9927 34.4895C81.5769 34.4895 81.2096 34.6277 80.8808 34.9041C80.5521 35.1805 80.3394 35.5457 80.2331 35.9899C80.1364 36.4144 80.1751 36.7698 80.3684 37.056C80.5521 37.3324 80.8422 37.4706 81.2289 37.4706C81.4513 37.4706 81.6736 37.4311 81.896 37.3423C82.1183 37.2633 82.3407 37.135 82.5727 36.9672L82.3987 37.6977C82.2054 37.826 82.0023 37.9148 81.7896 37.974C81.5769 38.0333 81.3642 38.0629 81.1322 38.0629C80.8422 38.0629 80.5811 38.0135 80.3588 37.9148C80.1364 37.8161 79.9527 37.668 79.8077 37.4706C79.6627 37.2831 79.5757 37.056 79.537 36.7994C79.4983 36.5427 79.508 36.2663 79.5853 35.9702C79.653 35.674 79.769 35.4075 79.9237 35.1509C80.0784 34.8942 80.2814 34.6672 80.5135 34.4796C80.7455 34.2822 80.9969 34.1341 81.2676 34.0354C81.5383 33.9367 81.809 33.8874 82.0893 33.8874C82.3117 33.8874 82.5147 33.917 82.7081 33.9861C82.8918 34.0552 83.0658 34.1539 83.2205 34.2921L83.0561 34.9534ZM83.1141 37.9642L84.0423 33.9861H86.1596L86.0339 34.5389H84.5353L84.3033 35.5358H85.8018L85.6665 36.0985H84.168L83.8682 37.3818H85.3668L85.2314 37.9642H83.1141Z" fill="#3D3D3C"/>
<path d="M71.8608 30.5237H67.6166L73.514 8.77734H77.7583L71.8608 30.5237ZM69.6565 9.45846C69.3665 9.04387 68.9121 8.83657 68.2933 8.83657H44.9742L43.8237 13.1009H65.0352L63.7977 17.6516H46.8304V17.6417H42.5862L39.0671 30.6224H43.3113L45.6703 21.916H64.7452C65.3446 21.916 65.9053 21.7087 66.4274 21.2941C66.9495 20.8795 67.2975 20.3662 67.4619 19.7542L69.8209 11.0477C70.0046 10.3962 69.9466 9.87305 69.6565 9.45846ZM36.5921 29.1615C36.36 30.0203 35.5866 30.6224 34.7165 30.6224H12.8379C12.2384 30.6224 11.7937 30.4151 11.5037 30.0005C11.2136 29.5859 11.146 29.0726 11.32 28.4606L16.6567 8.83657H20.9009L16.1346 26.3679H33.1116L37.8779 8.83657H42.1221L36.5921 29.1615Z" fill="#70706E"/>
<path d="M85.0862 8.81641L90.452 19.7143L79.1694 30.6121L85.0862 8.81641Z" fill="#098041"/>
<path d="M81.3161 8.81641L86.6818 19.7143L75.3896 30.6121L81.3161 8.81641Z" fill="#E97626"/>
</svg>
