<svg width="75" height="24" viewBox="0 0 75 24" fill="white" xmlns="http://www.w3.org/2000/svg">
<path d="M39.021 7.64017C38.9788 10.9701 41.9877 12.8282 44.2542 13.9331C46.5829 15.0666 47.3651 15.7935 47.3558 16.8073C47.3385 18.3586 45.4983 19.0434 43.7764 19.07C40.7722 19.1165 39.0253 18.2586 37.6367 17.6097L36.5544 22.6755C37.9477 23.3177 40.5276 23.8778 43.2029 23.9023C49.4828 23.9023 53.5912 20.8014 53.6135 15.9936C53.638 9.89184 45.1763 9.5541 45.2341 6.82678C45.2541 5.99979 46.0429 5.11728 47.7715 4.8929C48.6271 4.77955 50.9891 4.6928 53.6669 5.92634L54.718 1.02514C53.2779 0.50061 51.427 -0.00165558 49.1226 -0.00165558C43.2118 -0.00165558 39.0545 3.14148 39.021 7.64017ZM64.8172 0.420513C63.6705 0.420513 62.7042 1.08962 62.2729 2.11642L53.3024 23.5423H59.5777L60.8264 20.0901H68.4947L69.2191 23.5423H74.75L69.9235 0.420513H64.8172ZM65.6951 6.66659L67.5061 15.3491H62.5464L65.6951 6.66659ZM31.4126 0.420803L26.4662 23.5421H32.446L37.3901 0.420225L31.4126 0.420803ZM22.5664 0.420803L16.3423 16.1582L13.8246 2.77685C13.5292 1.28307 12.3625 0.420513 11.0669 0.420513H0.892508L0.75 1.09193C2.83877 1.54533 5.21197 2.27661 6.64977 3.05907C7.52967 3.53704 7.78058 3.95487 8.06964 5.09068L12.8383 23.5423H19.1575L28.8457 0.420513L22.5664 0.420803Z" fill="url(#paint0_linear_174_16016)"/>
<defs>
<linearGradient id="paint0_linear_174_16016" x1="3402.83" y1="71.8538" x2="3472.04" y2="-2383.12" gradientUnits="userSpaceOnUse">
<stop stop-color="#222357"/>
<stop offset="1" stop-color="#254AA5"/>
</linearGradient>
</defs>
</svg>
