<svg width="65" height="65" viewBox="0 0 65 65" fill="none" xmlns="http://www.w3.org/2000/svg">
<g clip-path="url(#clip0_621_1229)">
<path d="M33 19.6667C36.6227 19.6667 37.0747 19.68 38.496 19.7467C39.916 19.8133 40.8827 20.036 41.7334 20.3667C42.6134 20.7053 43.3547 21.164 44.096 21.904C44.774 22.5705 45.2986 23.3768 45.6334 24.2667C45.9627 25.116 46.1867 26.084 46.2534 27.504C46.316 28.9253 46.3334 29.3773 46.3334 33C46.3334 36.6227 46.32 37.0747 46.2534 38.496C46.1867 39.916 45.9627 40.8827 45.6334 41.7333C45.2996 42.6237 44.7748 43.4302 44.096 44.096C43.4293 44.7738 42.6231 45.2983 41.7334 45.6333C40.884 45.9627 39.916 46.1867 38.496 46.2533C37.0747 46.316 36.6227 46.3333 33 46.3333C29.3774 46.3333 28.9254 46.32 27.504 46.2533C26.084 46.1867 25.1174 45.9627 24.2667 45.6333C23.3765 45.2993 22.5701 44.7746 21.904 44.096C21.2259 43.4296 20.7013 42.6233 20.3667 41.7333C20.036 40.884 19.8134 39.916 19.7467 38.496C19.684 37.0747 19.6667 36.6227 19.6667 33C19.6667 29.3773 19.68 28.9253 19.7467 27.504C19.8134 26.0827 20.036 25.1173 20.3667 24.2667C20.7003 23.3762 21.2251 22.5698 21.904 21.904C22.5702 21.2256 23.3766 20.701 24.2667 20.3667C25.1174 20.036 26.0827 19.8133 27.504 19.7467C28.9254 19.684 29.3774 19.6667 33 19.6667ZM33 26.3333C31.2319 26.3333 29.5362 27.0357 28.286 28.286C27.0357 29.5362 26.3334 31.2319 26.3334 33C26.3334 34.7681 27.0357 36.4638 28.286 37.714C29.5362 38.9643 31.2319 39.6667 33 39.6667C34.7681 39.6667 36.4638 38.9643 37.7141 37.714C38.9643 36.4638 39.6667 34.7681 39.6667 33C39.6667 31.2319 38.9643 29.5362 37.7141 28.286C36.4638 27.0357 34.7681 26.3333 33 26.3333ZM41.6667 26C41.6667 25.558 41.4911 25.134 41.1785 24.8215C40.866 24.5089 40.442 24.3333 40 24.3333C39.558 24.3333 39.1341 24.5089 38.8215 24.8215C38.5089 25.134 38.3334 25.558 38.3334 26C38.3334 26.442 38.5089 26.8659 38.8215 27.1785C39.1341 27.4911 39.558 27.6667 40 27.6667C40.442 27.6667 40.866 27.4911 41.1785 27.1785C41.4911 26.8659 41.6667 26.442 41.6667 26ZM33 29C34.0609 29 35.0783 29.4214 35.8284 30.1716C36.5786 30.9217 37 31.9391 37 33C37 34.0609 36.5786 35.0783 35.8284 35.8284C35.0783 36.5786 34.0609 37 33 37C31.9392 37 30.9217 36.5786 30.1716 35.8284C29.4214 35.0783 29 34.0609 29 33C29 31.9391 29.4214 30.9217 30.1716 30.1716C30.9217 29.4214 31.9392 29 33 29Z" fill="#7848F4"/>
</g>
<rect opacity="0.1" width="65" height="65" rx="20" fill="#7848F4"/>
<defs>
<clipPath id="clip0_621_1229">
<rect width="32" height="32" fill="white" transform="translate(17 17)"/>
</clipPath>
</defs>
</svg>
