<svg width="65" height="65" viewBox="0 0 65 65" fill="none" xmlns="http://www.w3.org/2000/svg">
<g clip-path="url(#clip0_621_1241)">
<path d="M26.2533 23.6667C26.253 24.3739 25.9717 25.052 25.4714 25.5519C24.971 26.0517 24.2926 26.3324 23.5853 26.332C22.8781 26.3316 22.2 26.0504 21.7001 25.55C21.2003 25.0497 20.9197 24.3712 20.92 23.664C20.9204 22.9568 21.2017 22.2786 21.702 21.7788C22.2024 21.2789 22.8808 20.9983 23.588 20.9987C24.2953 20.999 24.9734 21.2803 25.4732 21.7807C25.9731 22.281 26.2537 22.9594 26.2533 23.6667ZM26.3333 28.3067H21V45H26.3333V28.3067ZM34.76 28.3067H29.4533V45H34.7067V36.24C34.7067 31.36 41.0667 30.9067 41.0667 36.24V45H46.3333V34.4267C46.3333 26.2 36.92 26.5067 34.7067 30.5467L34.76 28.3067Z" fill="#7848F4"/>
</g>
<rect opacity="0.1" width="65" height="65" rx="20" fill="#7848F4"/>
<defs>
<clipPath id="clip0_621_1241">
<rect width="32" height="32" fill="white" transform="translate(17 17)"/>
</clipPath>
</defs>
</svg>
