<svg width="65" height="65" viewBox="0 0 65 65" fill="none" xmlns="http://www.w3.org/2000/svg">
<g clip-path="url(#clip0_621_1253)">
<path d="M45.724 25.664C46.3333 28.04 46.3333 33 46.3333 33C46.3333 33 46.3333 37.96 45.724 40.336C45.3853 41.6493 44.3947 42.6827 43.14 43.032C40.8613 43.6667 33 43.6667 33 43.6667C33 43.6667 25.1427 43.6667 22.86 43.032C21.6 42.6773 20.6107 41.6453 20.276 40.336C19.6667 37.96 19.6667 33 19.6667 33C19.6667 33 19.6667 28.04 20.276 25.664C20.6147 24.3507 21.6053 23.3173 22.86 22.968C25.1427 22.3333 33 22.3333 33 22.3333C33 22.3333 40.8613 22.3333 43.14 22.968C44.4 23.3227 45.3893 24.3547 45.724 25.664ZM30.3333 37.6667L38.3333 33L30.3333 28.3333V37.6667Z" fill="#7848F4"/>
</g>
<rect opacity="0.1" width="65" height="65" rx="20" fill="#7848F4"/>
<defs>
<clipPath id="clip0_621_1253">
<rect width="32" height="32" fill="white" transform="translate(17 17)"/>
</clipPath>
</defs>
</svg>
