<svg width="65" height="65" viewBox="0 0 65 65" fill="none" xmlns="http://www.w3.org/2000/svg">
<g clip-path="url(#clip0_621_1247)">
<path d="M46.5493 24.5413C45.5314 24.9916 44.452 25.2873 43.3467 25.4187C44.5117 24.7219 45.3836 23.6254 45.8 22.3333C44.7067 22.984 43.508 23.44 42.2587 23.6867C41.4195 22.7888 40.3072 22.1933 39.0946 21.9928C37.8821 21.7923 36.6373 21.998 35.5537 22.5779C34.4701 23.1579 33.6085 24.0796 33.1028 25.1997C32.5971 26.3199 32.4757 27.5757 32.7573 28.772C30.5402 28.6609 28.3711 28.0847 26.3911 27.0809C24.411 26.0771 22.6642 24.6681 21.264 22.9453C20.7684 23.7966 20.5079 24.7643 20.5093 25.7493C20.5093 27.6827 21.4933 29.3907 22.9893 30.3907C22.104 30.3628 21.2382 30.1237 20.464 29.6933V29.7627C20.4643 31.0503 20.9098 32.2982 21.7251 33.2947C22.5404 34.2913 23.6753 34.9753 24.9373 35.2307C24.1155 35.4534 23.2538 35.4862 22.4173 35.3267C22.7732 36.435 23.4667 37.4043 24.4008 38.0988C25.3349 38.7934 26.4628 39.1784 27.6267 39.2C26.47 40.1084 25.1456 40.78 23.7292 41.1762C22.3128 41.5725 20.8322 41.6857 19.372 41.5093C21.9209 43.1486 24.8881 44.0188 27.9187 44.016C38.176 44.016 43.7853 35.5187 43.7853 28.1493C43.7853 27.9093 43.7787 27.6667 43.768 27.4293C44.8598 26.6402 45.8021 25.6627 46.5507 24.5427L46.5493 24.5413Z" fill="#7848F4"/>
</g>
<rect opacity="0.1" width="65" height="65" rx="20" fill="#7848F4"/>
<defs>
<clipPath id="clip0_621_1247">
<rect width="32" height="32" fill="white" transform="translate(17 17)"/>
</clipPath>
</defs>
</svg>
