<svg width="722" height="392" viewBox="0 0 722 392" fill="none" xmlns="http://www.w3.org/2000/svg">
<g clip-path="url(#clip0_621_1165)">
<path d="M363.317 392C559.093 392 717.801 381.509 717.801 368.569C717.801 355.628 559.093 345.137 363.317 345.137C167.541 345.137 8.83258 355.628 8.83258 368.569C8.83258 381.509 167.541 392 363.317 392Z" fill="#F2F2F2"/>
<path d="M349.73 112.058C291.975 112.058 250.507 149.055 250.507 235.381C250.507 333.216 291.975 359.114 349.73 359.114C407.485 359.114 451.423 330.75 451.423 235.381C451.423 133.434 407.485 112.058 349.73 112.058ZM350.11 326.639C310.107 326.639 289.208 303.207 289.208 235.444C289.208 175.653 310.963 144.122 350.965 144.122C390.968 144.122 412.722 164.833 412.722 235.444C412.722 301.499 390.112 326.639 350.11 326.639Z" fill="#2F2E41"/>
<path d="M215.924 290.876H192.044V220.666C192.044 216.937 190.561 213.36 187.92 210.724C185.279 208.087 181.697 206.605 177.962 206.605H172.366C170.517 206.605 168.686 206.969 166.977 207.676C165.269 208.382 163.716 209.418 162.409 210.724C161.101 212.029 160.064 213.579 159.356 215.285C158.648 216.991 158.284 218.819 158.284 220.666V290.876H90.9285C89.5429 290.876 88.1808 290.518 86.9743 289.838C85.7679 289.157 84.7581 288.177 84.0428 286.992C83.3276 285.807 82.9313 284.457 82.8923 283.074C82.8533 281.692 83.173 280.322 83.8203 279.099L155.109 144.382C155.997 142.702 156.536 140.86 156.692 138.967C156.848 137.074 156.618 135.169 156.017 133.367C155.415 131.564 154.454 129.903 153.191 128.482C151.929 127.061 150.391 125.91 148.67 125.099L144.462 123.115C141.194 121.574 137.459 121.346 134.028 122.479C130.597 123.612 127.733 126.018 126.029 129.2L39.084 291.596C37.6034 294.362 36.8289 297.449 36.8289 300.585C36.8289 303.088 37.3228 305.568 38.2824 307.881C39.2421 310.194 40.6487 312.296 42.4219 314.066C44.195 315.837 46.3001 317.241 48.6169 318.199C50.9337 319.158 53.4168 319.651 55.9245 319.651H158.284V364.047C158.284 366.26 158.721 368.452 159.569 370.497C160.417 372.541 161.661 374.399 163.228 375.964C164.796 377.529 166.656 378.771 168.704 379.618C170.752 380.465 172.947 380.901 175.164 380.901H175.164C177.381 380.901 179.576 380.465 181.624 379.618C183.672 378.771 185.533 377.529 187.1 375.964C188.668 374.399 189.911 372.541 190.759 370.497C191.608 368.452 192.044 366.26 192.044 364.047V319.651H215.924C219.745 319.651 223.411 318.135 226.113 315.437C228.815 312.739 230.334 309.079 230.334 305.263C230.334 301.447 228.815 297.788 226.113 295.09C223.411 292.391 219.745 290.876 215.924 290.876Z" fill="#7848F4"/>
<path d="M658.103 290.876H634.223V220.666C634.223 216.937 632.74 213.36 630.099 210.724C627.458 208.087 623.876 206.605 620.141 206.605H614.545C612.696 206.605 610.865 206.969 609.156 207.676C607.448 208.382 605.895 209.418 604.588 210.724C603.28 212.029 602.243 213.579 601.535 215.285C600.827 216.991 600.463 218.819 600.463 220.666V290.876H533.107C531.722 290.876 530.36 290.518 529.153 289.838C527.947 289.157 526.937 288.177 526.222 286.992C525.507 285.807 525.11 284.457 525.071 283.074C525.032 281.692 525.352 280.322 525.999 279.099L597.287 144.382C598.176 142.702 598.715 140.86 598.871 138.967C599.027 137.074 598.797 135.169 598.196 133.367C597.594 131.564 596.633 129.903 595.37 128.482C594.108 127.061 592.57 125.91 590.849 125.099L586.641 123.115C583.373 121.574 579.637 121.346 576.206 122.479C572.775 123.612 569.912 126.018 568.208 129.2L481.263 291.596C479.782 294.362 479.008 297.449 479.008 300.585C479.008 305.641 481.02 310.491 484.601 314.066C488.182 317.642 493.039 319.651 498.103 319.651H600.463V364.047C600.463 368.517 602.241 372.804 605.407 375.964C608.573 379.125 612.866 380.901 617.343 380.901C621.82 380.901 626.113 379.125 629.279 375.964C632.445 372.804 634.223 368.517 634.223 364.047V319.651H658.102C661.924 319.651 665.589 318.135 668.292 315.437C670.994 312.739 672.512 309.079 672.512 305.263C672.512 301.447 670.994 297.788 668.292 295.09C665.589 292.391 661.924 290.876 658.103 290.876Z" fill="#7848F4"/>
<path d="M222.511 282.654H198.632V212.444C198.632 210.598 198.268 208.77 197.56 207.064C196.852 205.358 195.815 203.808 194.507 202.502C193.2 201.196 191.647 200.161 189.939 199.454C188.23 198.747 186.399 198.384 184.549 198.384H178.954C175.219 198.384 171.637 199.865 168.996 202.502C166.355 205.139 164.871 208.715 164.871 212.444V282.654H97.5161C96.1304 282.654 94.7683 282.296 93.5619 281.616C92.3554 280.936 91.3456 279.955 90.6304 278.77C89.9151 277.585 89.5188 276.236 89.4798 274.853C89.4408 273.47 89.7605 272.101 90.4078 270.877L161.696 136.16C162.585 134.481 163.124 132.639 163.28 130.745C163.436 128.852 163.206 126.947 162.604 125.145C162.003 123.343 161.042 121.681 159.779 120.26C158.516 118.839 156.978 117.688 155.258 116.877L151.05 114.893C147.782 113.352 144.046 113.125 140.615 114.258C137.184 115.391 134.321 117.797 132.617 120.979L45.6715 283.375C44.191 286.14 43.4164 289.227 43.4164 292.363V292.363C43.4164 297.42 45.4282 302.269 49.0094 305.845C52.5905 309.421 57.4476 311.429 62.512 311.429H164.871V355.825C164.871 358.039 165.308 360.23 166.156 362.275C167.005 364.32 168.248 366.178 169.816 367.743C171.383 369.308 173.244 370.549 175.292 371.396C177.34 372.243 179.535 372.679 181.752 372.679H181.752C186.229 372.679 190.522 370.904 193.688 367.743C196.853 364.582 198.632 360.295 198.632 355.825V311.429H222.511C224.404 311.429 226.277 311.057 228.026 310.334C229.774 309.611 231.362 308.551 232.701 307.215C234.039 305.879 235.1 304.293 235.824 302.548C236.548 300.802 236.921 298.931 236.921 297.042V297.042C236.921 295.152 236.548 293.281 235.824 291.536C235.1 289.79 234.039 288.204 232.701 286.868C231.362 285.532 229.774 284.472 228.026 283.749C226.277 283.026 224.404 282.654 222.511 282.654V282.654Z" stroke="#3F3D56" stroke-miterlimit="10"/>
<path d="M670.454 282.654H646.575V212.444C646.575 208.715 645.091 205.139 642.45 202.502C639.809 199.865 636.227 198.384 632.493 198.384H626.897C625.048 198.384 623.217 198.747 621.508 199.454C619.799 200.161 618.247 201.196 616.939 202.502C615.632 203.808 614.594 205.358 613.887 207.064C613.179 208.77 612.815 210.598 612.815 212.444V282.654H545.459C544.074 282.654 542.711 282.296 541.505 281.616C540.299 280.936 539.289 279.955 538.573 278.77C537.858 277.585 537.462 276.236 537.423 274.853C537.384 273.47 537.704 272.101 538.351 270.877L609.639 136.16C610.528 134.481 611.067 132.639 611.223 130.745C611.379 128.852 611.149 126.947 610.547 125.145C609.946 123.343 608.985 121.681 607.722 120.26C606.459 118.839 604.921 117.688 603.201 116.877L598.993 114.893C595.725 113.352 591.989 113.125 588.558 114.258C585.127 115.391 582.264 117.797 580.56 120.979L493.615 283.375C492.134 286.14 491.359 289.227 491.359 292.363C491.359 297.42 493.371 302.269 496.952 305.845C500.534 309.421 505.391 311.429 510.455 311.429H612.815V355.825C612.815 360.295 614.593 364.582 617.759 367.743C620.924 370.904 625.218 372.679 629.695 372.679V372.679C634.172 372.679 638.465 370.904 641.631 367.743C644.797 364.582 646.575 360.295 646.575 355.825V311.429H670.454C672.347 311.429 674.22 311.057 675.969 310.334C677.717 309.611 679.306 308.551 680.644 307.215C681.982 305.879 683.043 304.293 683.767 302.548C684.492 300.802 684.864 298.931 684.864 297.042V297.042C684.864 293.226 683.346 289.566 680.644 286.868C677.941 284.17 674.276 282.654 670.454 282.654V282.654Z" stroke="#3F3D56" stroke-miterlimit="10"/>
<path d="M362.905 104.659C305.15 104.659 263.682 141.655 263.682 227.981C263.682 325.817 305.15 351.715 362.905 351.715C420.66 351.715 464.598 323.351 464.598 227.981C464.598 126.035 420.66 104.659 362.905 104.659ZM363.285 319.24C323.282 319.24 302.383 295.808 302.383 228.044C302.383 168.253 324.138 136.723 364.14 136.723C404.143 136.723 425.897 157.434 425.897 228.044C425.897 294.099 403.287 319.24 363.285 319.24V319.24Z" stroke="#3F3D56" stroke-miterlimit="10"/>
<path d="M316.61 20.9017C321.399 20.9017 325.28 17.0262 325.28 12.2454C325.28 7.46472 321.399 3.58917 316.61 3.58917C311.822 3.58917 307.941 7.46472 307.941 12.2454C307.941 17.0262 311.822 20.9017 316.61 20.9017Z" fill="#2F2E41"/>
<path d="M337.756 62.9163C351.186 62.9163 362.074 48.832 362.074 31.4581C362.074 14.0843 351.186 0 337.756 0C324.326 0 313.439 14.0843 313.439 31.4581C313.439 48.832 324.326 62.9163 337.756 62.9163Z" fill="#2F2E41"/>
<path opacity="0.1" d="M337.756 53.4155C325.574 53.4155 315.485 41.8276 313.715 26.7078C313.53 28.2845 313.438 29.8707 313.439 31.4582C313.439 48.832 324.326 62.9163 337.756 62.9163C351.186 62.9163 362.074 48.832 362.074 31.4582C362.074 29.8707 361.982 28.2845 361.798 26.7078C360.027 41.8276 349.938 53.4155 337.756 53.4155Z" fill="black"/>
<path d="M387.239 123.585C386.717 125.727 384.465 127.443 381.972 128.642C376.729 131.163 370.262 131.915 363.989 132.168C362.389 132.265 360.783 132.235 359.188 132.079C356.096 131.781 353.195 130.449 350.955 128.301C350.795 128.197 350.665 128.054 350.575 127.886C350.485 127.717 350.44 127.529 350.443 127.339C350.446 127.148 350.497 126.961 350.592 126.796C350.686 126.63 350.822 126.492 350.985 126.393C354.324 122.73 359.897 120.484 365.511 118.867C369.768 117.641 377.191 114.465 381.834 114.893C386.331 115.309 387.899 120.879 387.239 123.585Z" fill="#3F3D56"/>
<path opacity="0.1" d="M387.239 123.585C386.717 125.727 384.465 127.443 381.972 128.642C376.729 131.163 370.262 131.915 363.989 132.168C362.389 132.265 360.783 132.235 359.188 132.079C356.096 131.781 353.195 130.449 350.955 128.301C350.795 128.197 350.665 128.054 350.575 127.886C350.485 127.717 350.44 127.529 350.443 127.339C350.446 127.148 350.497 126.961 350.592 126.796C350.686 126.63 350.822 126.492 350.985 126.393C354.324 122.73 359.897 120.484 365.511 118.867C369.768 117.641 377.191 114.465 381.834 114.893C386.331 115.309 387.899 120.879 387.239 123.585Z" fill="black"/>
<path d="M320.577 107.57C318.977 110.702 318.687 114.34 319.772 117.685C320.875 121.005 322.94 123.923 325.705 126.07C332.489 131.499 341.825 132.246 350.519 132.171C358.138 132.105 365.746 131.584 373.303 130.612C375.836 130.388 378.324 129.811 380.696 128.898C383.534 127.672 386.027 125.424 387.037 122.506C388.048 119.589 387.331 116.017 384.931 114.07C382.823 112.359 379.917 112.123 377.205 111.961L361.69 111.03C363.223 109.481 365.264 108.605 367.13 107.479C369.607 105.985 371.252 103.477 373.053 101.216C375.827 97.9049 378.846 94.806 382.084 91.9449C382.589 94.837 384.421 97.2119 386.578 99.2075C388.734 101.203 391.22 102.81 393.462 104.709C398.89 109.311 402.8 115.557 408.509 119.807C412.437 118.776 416.109 116.946 419.294 114.431L417.075 110.417C416.89 110.004 416.602 109.646 416.239 109.375C415.611 108.99 414.801 109.188 414.071 109.079C412.122 108.787 411.271 106.54 410.506 104.726C408.406 99.7466 404.385 95.8831 400.951 91.7071C398.417 88.6244 396.168 85.3179 394.234 81.8285C393.081 79.7474 392.024 77.5806 390.459 75.7877C388.894 73.9947 386.7 72.5851 384.318 72.5801C382.213 72.5757 380.272 73.6426 378.462 74.7158C372.95 77.9848 367.646 81.5924 362.582 85.5177C359.932 87.572 357.298 89.7424 354.189 91.0021C352.881 91.5324 351.501 91.8949 350.245 92.5402C348.046 93.6703 346.376 95.5826 344.579 97.28C338.17 103.334 329.395 107.257 320.577 107.57Z" fill="#3F3D56"/>
<path d="M353.019 64.4787C352.947 66.3293 352.553 68.1532 351.854 69.8688C351.5 70.7244 350.973 71.498 350.306 72.1413C349.639 72.7846 348.846 73.2839 347.978 73.6079C346.744 73.9378 345.451 73.9797 344.199 73.7303C343.107 73.6164 342.055 73.2585 341.12 72.6831C339.665 71.6845 338.94 69.9026 338.676 68.1586C338.412 66.4168 338.53 64.637 338.361 62.8825C338.196 61.4654 337.926 60.0625 337.553 58.6853C337.439 58.2272 337.323 57.7711 337.208 57.3151C337.096 56.8591 336.986 56.403 336.885 55.947C336.792 55.5184 336.705 55.0877 336.631 54.6549C336.57 54.2896 336.515 53.9222 336.475 53.5528C336.438 52.4574 336.255 51.3719 335.931 50.3246C335.627 49.6454 335.247 49.003 334.798 48.4097C334.605 48.1352 334.419 47.8608 334.248 47.5757C333.753 46.835 333.522 45.9489 333.595 45.0612C333.615 44.9239 333.648 44.7889 333.694 44.6579C333.711 44.6073 333.73 44.5566 333.751 44.508C333.941 44.4565 334.116 44.3593 334.26 44.225C334.404 44.0907 334.513 43.9233 334.578 43.7374C334.651 43.338 334.616 42.9264 334.479 42.5445C334.32 42.0108 334.104 41.4961 333.834 41.0096C333.656 40.6887 333.053 40.1102 333.049 39.7428C333.041 39.0039 334.487 38.4085 335.073 38.1171C336.861 37.2232 338.854 36.8196 340.85 36.9475C342.129 37.034 343.516 37.4267 344.222 38.4971C344.857 39.462 344.772 40.7119 345.043 41.833C345.071 41.9959 345.14 42.1491 345.244 42.2785C345.382 42.404 345.555 42.4837 345.741 42.5065C346.054 42.5687 346.375 42.5815 346.692 42.5445H346.694C346.778 42.5379 346.862 42.5259 346.944 42.5086C347.438 42.4176 347.905 42.2162 348.31 41.9195C348.572 41.8499 348.836 41.7929 349.103 41.7485C349.114 41.7474 349.124 41.7453 349.135 41.7422C350.194 45.0801 350.331 48.6588 351.198 52.0579C351.628 53.7491 352.243 55.4191 352.33 57.1588C352.336 57.2348 352.338 57.3129 352.34 57.391C352.353 57.9505 352.309 58.5142 352.332 59.0716C352.34 59.3226 352.368 59.5725 352.416 59.819C352.511 60.2154 352.629 60.606 352.769 60.9887L352.776 61.0077C352.816 61.1301 352.854 61.2547 352.886 61.3793C352.909 61.47 352.93 61.5587 352.947 61.6495L352.949 61.6558C353.106 62.5888 353.129 63.5392 353.019 64.4787Z" fill="#FBBEBE"/>
<path d="M338.179 42.648C345.069 42.648 350.655 37.071 350.655 30.1914C350.655 23.3118 345.069 17.7348 338.179 17.7348C331.289 17.7348 325.703 23.3118 325.703 30.1914C325.703 37.071 331.289 42.648 338.179 42.648Z" fill="#FBBEBE"/>
<path d="M417.386 98.0607C417.024 94.6622 415.815 91.4087 413.867 88.5979C414.191 90.5192 414.515 92.4398 414.84 94.3596C414.436 94.4763 414.007 94.4728 413.605 94.3494C413.203 94.226 412.846 93.9881 412.578 93.665C412.052 93.0101 411.65 92.2654 411.391 91.4672C409.974 87.954 408.12 84.6323 405.874 81.58C397.932 80.9192 390.081 77.6319 383.096 73.7999C376.11 69.9701 369.572 65.378 362.678 61.3856C361.483 60.6643 360.238 60.0293 358.952 59.4854C356.796 58.6219 354.374 58.1743 352.33 57.1588C352.192 57.0912 352.055 57.0194 351.919 56.9455C351.457 56.6947 351.02 56.4014 350.613 56.0694C350.392 55.8909 350.183 55.6991 349.987 55.4951C348.966 54.31 348.158 52.9589 347.595 51.5005C346.498 49.0768 346.106 46.1526 345.011 43.7289C345.515 43.2591 346.08 42.8606 346.692 42.5445H346.694C346.783 42.498 346.872 42.4537 346.963 42.4115C347.396 42.2077 347.847 42.043 348.31 41.9195C348.572 41.8499 348.836 41.7928 349.103 41.7485C349.114 41.7474 349.124 41.7453 349.135 41.7422C350.37 41.5412 351.636 41.6411 352.824 42.0335C354.563 42.6205 356.028 43.7922 357.489 44.9007C359.863 46.5704 362.14 48.3735 364.309 50.3013C365.514 51.454 366.613 52.7208 367.91 53.7681C368.987 54.5981 370.122 55.3495 371.308 56.0166C378.322 60.1885 385.336 64.3596 392.352 68.5301C394.726 69.9426 397.103 71.3551 399.425 72.8498C402.952 75.1216 406.352 77.5833 409.75 80.043C411.753 81.4913 413.755 82.9404 415.756 84.3901C416.412 84.8083 416.989 85.3403 417.458 85.9609C417.873 86.6656 418.13 87.4513 418.213 88.2643C418.715 91.5492 418.432 94.9061 417.386 98.0607Z" fill="#FBBEBE"/>
<path d="M356.113 73.8464C355.271 77.615 351.457 79.8931 349.463 83.2036C346.984 87.3122 347.995 92.0879 348.925 96.7939C347.225 98.2571 345.524 99.7202 343.823 101.183C342.884 101.988 341.945 102.796 340.935 103.508C339.461 104.494 337.92 105.377 336.325 106.151C334.819 106.924 333.314 107.697 331.808 108.471C330.408 109.257 328.925 109.885 327.387 110.342C324.42 111.102 321.269 110.57 318.334 109.69C317.988 109.599 317.655 109.463 317.344 109.286C317.161 109.177 317.002 109.033 316.875 108.862C316.586 108.344 316.481 107.744 316.577 107.158C316.875 102.226 318.082 97.3978 319.286 92.6051C319.929 89.7299 320.793 86.9086 321.872 84.1663C322.929 81.8166 324.145 79.5411 325.511 77.3553C327.018 74.6052 328.804 72.0166 330.84 69.6301C331.831 68.7116 332.665 67.6376 333.309 66.4505C334.06 64.7404 333.77 62.779 333.923 60.9169C334.039 59.5178 334.411 58.1518 335.02 56.8864V56.8843C335.346 56.2027 335.738 55.5549 336.192 54.9504C336.397 55.4275 336.602 55.904 336.807 56.3797C336.942 56.6922 337.076 57.004 337.209 57.3151C337.382 57.7162 337.554 58.1159 337.725 58.5143C338.217 59.6586 338.709 60.8022 339.201 61.9451C339.732 63.3846 340.488 64.7308 341.442 65.9333C341.878 66.5491 342.467 67.0414 343.15 67.3622C343.834 67.6831 344.589 67.8214 345.342 67.7637C346.095 67.7061 346.82 67.4544 347.447 67.0333C348.073 66.6122 348.58 66.0361 348.917 65.3612C349.628 64.1013 350.143 62.7409 350.444 61.3265C350.861 59.6044 350.919 57.8148 350.613 56.0694C350.103 52.7082 348.672 49.2753 347.631 46.1527C347.208 45.1115 346.963 44.0067 346.906 42.8844C346.908 42.7583 346.921 42.6326 346.944 42.5086C346.95 42.4769 346.957 42.4431 346.963 42.4115C347.397 42.2077 347.847 42.0431 348.31 41.9196C348.572 41.8499 348.837 41.7929 349.103 41.7485C350.019 46.6974 350.936 51.6462 351.854 56.5951C351.875 56.7112 351.898 56.8273 351.92 56.9456C352.051 57.655 352.184 58.3644 352.332 59.0716C352.465 59.7135 352.609 60.3532 352.77 60.9887L352.776 61.0077C352.831 61.2231 352.888 61.4363 352.947 61.6495L352.949 61.6558C353.112 62.2386 353.294 62.817 353.499 63.3871C354.743 66.8221 356.91 70.2804 356.113 73.8464Z" fill="#6C63FF"/>
<path d="M406.745 126.808C406.705 127.534 406.846 128.258 407.155 128.917C407.935 130.342 409.809 130.666 411.43 130.799C420.9 131.576 430.428 131.286 439.833 129.935C440.343 129.9 440.838 129.747 441.279 129.487C442.616 128.551 441.792 126.269 440.331 125.539C438.871 124.809 437.139 124.985 435.536 124.669C433.945 124.269 432.429 123.612 431.049 122.725C427.8 120.862 424.598 118.918 421.444 116.896C419.566 115.692 417.349 114.407 415.235 115.121C409.506 117.056 406.707 120.637 406.745 126.808Z" fill="#3F3D56"/>
<path d="M336.933 55.6831V55.6852C336.919 55.7738 336.904 55.8604 336.885 55.947C336.861 56.0906 336.834 56.2362 336.806 56.3797C336.544 57.7204 336.223 59.0547 335.853 60.3806C334.838 64.0437 333.478 67.6477 332.129 71.1989C328.509 80.7207 324.888 90.2433 321.267 99.7666C320.353 102.165 319.442 104.566 318.403 106.915C318.057 107.699 317.699 108.488 317.344 109.286C316.071 112.143 314.849 115.092 314.443 118.133C314.064 120.134 314.021 122.183 314.314 124.198C314.72 126.191 315.932 128.138 317.828 128.875C318.754 129.236 320.08 129.719 319.827 130.68C319.689 131.208 319.089 131.465 318.549 131.554C317.837 131.667 317.109 131.623 316.416 131.424C315.723 131.224 315.083 130.875 314.54 130.401C313.527 129.504 312.749 128.109 311.402 127.959C310.47 127.857 309.611 128.415 308.757 128.805C305.272 130.395 301.212 129.282 297.552 128.153C297.839 126.673 299.328 125.697 300.806 125.402C302.284 125.104 303.813 125.315 305.321 125.275C305.803 125.301 306.283 125.178 306.693 124.923C307.061 124.585 307.319 124.146 307.433 123.66C308.404 120.787 309.127 117.836 309.592 114.839C310.078 111.708 310.281 108.528 310.975 105.435C311.514 103.022 312.347 100.685 313.062 98.3162C314.444 93.4388 315.579 88.495 316.462 83.5034C316.909 81.4297 317.229 79.3307 317.42 77.2181C317.541 75.4658 317.484 73.705 317.653 71.9589C317.937 69.6873 318.411 67.4436 319.072 65.2514C319.719 62.8593 320.365 60.4686 321.011 58.0793C321.969 54.5429 322.996 50.8693 325.424 48.1204C326.267 47.1527 327.3 46.3681 328.459 45.8154C329.618 45.2626 330.879 44.9535 332.163 44.907C332.644 44.9065 333.124 44.9581 333.594 45.0612C333.673 45.0802 333.751 45.0992 333.829 45.1203C334.341 45.254 334.833 45.4572 335.29 45.7241C336.039 45.2491 336.419 45.4159 336.916 46.1485C337.352 46.9238 337.557 47.807 337.508 48.6947C337.55 51.0375 337.358 53.3785 336.933 55.6831Z" fill="#FBBEBE"/>
<path d="M337.756 58.4826L337.724 58.5143L337.553 58.6853L335.853 60.3807L335.02 56.8865L332.163 44.907C332.645 44.9064 333.125 44.9581 333.595 45.0611C333.615 44.9239 333.648 44.7889 333.694 44.6579L333.829 45.1203L334.798 48.4096L336.631 54.6548L336.934 55.683V55.6851L337.756 58.4826Z" fill="#6C63FF"/>
<path d="M348.544 20.2651C348.543 21.3743 348.323 22.4724 347.896 23.4966C347.469 24.5207 346.845 25.4509 346.058 26.2339C345.773 26.5189 345.467 26.7827 345.144 27.0232C343.684 28.1215 341.907 28.716 340.08 28.7168H329.935C327.693 28.7133 325.545 27.8218 323.961 26.238C322.377 24.6541 321.487 22.5074 321.487 20.2692C321.487 18.031 322.377 15.8843 323.961 14.3004C325.545 12.7166 327.693 11.825 329.935 11.8216H340.08C342.321 11.8274 344.47 12.7186 346.056 14.3006C347.642 15.8825 348.536 18.0268 348.544 20.2651Z" fill="#2F2E41"/>
<path d="M358.056 20.9017C362.844 20.9017 366.726 17.0262 366.726 12.2454C366.726 7.46472 362.844 3.58917 358.056 3.58917C353.268 3.58917 349.386 7.46472 349.386 12.2454C349.386 17.0262 353.268 20.9017 358.056 20.9017Z" fill="#2F2E41"/>
<path opacity="0.1" d="M357.845 3.58917C357.738 3.58917 357.633 3.59339 357.527 3.59718C359.77 3.67859 361.894 4.62538 363.452 6.23834C365.009 7.85131 365.88 10.0047 365.88 12.2454C365.88 14.4862 365.009 16.6396 363.452 18.2525C361.894 19.8655 359.77 20.8123 357.527 20.8937C357.633 20.8975 357.738 20.9017 357.845 20.9017C360.144 20.9017 362.349 19.9897 363.975 18.3663C365.601 16.743 366.514 14.5412 366.514 12.2454C366.514 9.94966 365.601 7.7479 363.975 6.12454C362.349 4.50117 360.144 3.58917 357.845 3.58917Z" fill="black"/>
<path opacity="0.1" d="M316.611 3.58917C316.717 3.58917 316.822 3.59339 316.928 3.59718C314.685 3.67859 312.561 4.62538 311.004 6.23834C309.446 7.85131 308.575 10.0047 308.575 12.2454C308.575 14.4862 309.446 16.6396 311.004 18.2525C312.561 19.8655 314.685 20.8123 316.928 20.8937C316.822 20.8975 316.717 20.9017 316.611 20.9017C314.313 20.8997 312.109 19.9868 310.485 18.3637C308.861 16.7405 307.949 14.5399 307.949 12.2454C307.949 9.95098 308.861 7.75038 310.485 6.12723C312.109 4.50408 314.313 3.59119 316.611 3.58917Z" fill="black"/>
<path opacity="0.1" d="M345.144 27.0232C343.684 28.1215 341.907 28.716 340.08 28.7168H329.935C328.108 28.716 326.33 28.1215 324.871 27.0232H345.144Z" fill="black"/>
<path d="M410.654 89.7459C410.654 89.7459 412.84 96.0339 414.84 94.3597L413.246 86.1404L410.654 89.7459Z" fill="#FBBEBE"/>
<path d="M676.621 281.504C678.656 282.243 680.836 282.5 682.988 282.254C685.14 282.008 687.206 281.267 689.022 280.088C690.838 278.91 692.355 277.326 693.453 275.462C694.552 273.598 695.202 271.505 695.352 269.347C695.502 267.19 695.148 265.027 694.318 263.029C693.488 261.032 692.205 259.254 690.569 257.836C688.934 256.418 686.991 255.399 684.893 254.858C682.796 254.318 680.602 254.271 678.483 254.722L678.833 261.91L675.427 255.75C672.085 257.318 669.502 260.147 668.248 263.616C667.802 264.83 667.531 266.102 667.443 267.393C667.228 270.422 668.008 273.437 669.664 275.984C671.32 278.53 673.762 280.468 676.621 281.504Z" fill="#57B894"/>
<path d="M693.473 364.867C692.271 358.755 697.48 353.336 702.626 349.813C707.772 346.291 713.785 342.83 715.541 336.852C718.064 328.261 710.548 320.394 704.698 313.609C700.357 308.574 696.63 303.043 693.594 297.132C692.376 294.761 691.258 292.284 690.938 289.639C690.476 285.831 691.702 282.042 692.936 278.41C697.048 266.309 701.445 254.31 706.127 242.412" stroke="#3F3D56" stroke-miterlimit="10"/>
<path d="M677.197 279.654C679.232 280.393 681.412 280.649 683.564 280.404C685.716 280.158 687.782 279.416 689.598 278.238C691.414 277.059 692.931 275.475 694.029 273.611C695.128 271.748 695.778 269.654 695.928 267.497C696.078 265.339 695.724 263.176 694.894 261.179C694.064 259.181 692.781 257.403 691.145 255.985C689.51 254.567 687.567 253.548 685.469 253.008C683.372 252.467 681.178 252.421 679.059 252.872L679.409 260.059L676.003 253.9C672.661 255.468 670.079 258.297 668.824 261.765C668.378 262.98 668.108 264.252 668.02 265.543C667.805 268.571 668.584 271.587 670.24 274.133C671.896 276.68 674.338 278.618 677.197 279.654V279.654Z" stroke="#3F3D56" stroke-miterlimit="10"/>
<path d="M691.763 239.93C692.562 237.729 693.903 235.764 695.662 234.217C697.422 232.669 699.543 231.589 701.83 231.075L702.982 237.908L705.117 230.731C708.081 230.775 710.955 231.759 713.323 233.539C715.691 235.32 717.431 237.806 718.291 240.639C719.152 243.472 719.089 246.504 718.111 249.298C717.133 252.093 715.291 254.505 712.851 256.186C710.411 257.867 707.499 258.73 704.535 258.651C701.571 258.571 698.71 257.554 696.363 255.745C694.016 253.936 692.306 251.429 691.48 248.587C690.653 245.744 690.752 242.713 691.763 239.93H691.763Z" fill="#57B894"/>
<path d="M692.531 237.463C693.33 235.262 694.671 233.297 696.43 231.75C698.189 230.202 700.31 229.121 702.598 228.608L703.749 235.44L705.884 228.264C708.849 228.308 711.722 229.291 714.09 231.072C716.458 232.853 718.198 235.339 719.059 238.172C719.92 241.004 719.857 244.037 718.879 246.831C717.901 249.625 716.059 252.037 713.619 253.718C711.178 255.399 708.266 256.262 705.303 256.183C702.339 256.104 699.477 255.086 697.131 253.278C694.784 251.469 693.074 248.962 692.247 246.119C691.42 243.277 691.52 240.245 692.531 237.463H692.531Z" stroke="#3F3D56" stroke-miterlimit="10"/>
<path d="M702.242 313.747C705.471 314.917 709.017 314.859 712.206 313.585C715.394 312.311 718.002 309.911 719.531 306.841C721.061 303.771 721.406 300.246 720.5 296.939C719.594 293.631 717.501 290.772 714.62 288.906L712.979 294.421L711.816 287.508C711.805 287.502 711.793 287.498 711.781 287.494C710.054 286.868 708.22 286.587 706.385 286.668C704.549 286.749 702.748 287.191 701.083 287.967C699.419 288.744 697.924 289.84 696.684 291.194C695.444 292.547 694.483 294.132 693.857 295.856C693.23 297.581 692.95 299.411 693.032 301.244C693.115 303.077 693.558 304.875 694.337 306.536C695.115 308.198 696.214 309.69 697.571 310.927C698.927 312.165 700.515 313.123 702.242 313.747H702.242Z" fill="#57B894"/>
<path d="M702.908 311.248C706.136 312.417 709.682 312.36 712.871 311.086C716.06 309.812 718.667 307.412 720.197 304.342C721.726 301.272 722.071 297.747 721.165 294.439C720.26 291.132 718.167 288.273 715.285 286.407L713.645 291.922L712.482 285.008C712.47 285.003 712.458 284.999 712.446 284.995C710.719 284.368 708.886 284.088 707.05 284.169C705.215 284.25 703.413 284.691 701.749 285.468C700.084 286.245 698.589 287.341 697.349 288.695C696.109 290.048 695.149 291.632 694.522 293.357C693.895 295.081 693.615 296.912 693.698 298.745C693.78 300.577 694.223 302.376 695.002 304.037C695.781 305.699 696.88 307.191 698.236 308.428C699.593 309.665 701.18 310.624 702.908 311.248H702.908Z" stroke="#3F3D56" stroke-miterlimit="10"/>
<path d="M687.682 336.938C688.237 340.091 689.861 342.959 692.282 345.058C694.703 347.158 697.774 348.363 700.979 348.471C704.184 348.579 707.329 347.583 709.886 345.65C712.443 343.718 714.257 340.966 715.023 337.857C715.789 334.748 715.462 331.47 714.095 328.573C712.728 325.677 710.405 323.337 707.516 321.948C704.627 320.558 701.347 320.203 698.226 320.941C695.106 321.679 692.334 323.466 690.377 326.003L696.608 335.367L688.094 330.397C687.434 332.513 687.292 334.756 687.682 336.938Z" fill="#57B894"/>
<path d="M688.258 335.087C688.813 338.241 690.437 341.108 692.858 343.208C695.279 345.308 698.35 346.513 701.555 346.621C704.76 346.728 707.905 345.732 710.462 343.8C713.019 341.867 714.833 339.116 715.599 336.007C716.365 332.897 716.038 329.62 714.671 326.723C713.304 323.826 710.981 321.487 708.092 320.097C705.203 318.708 701.923 318.352 698.802 319.09C695.682 319.829 692.91 321.616 690.953 324.152L697.184 333.517L688.67 328.546C688.01 330.662 687.869 332.905 688.258 335.087V335.087Z" stroke="#3F3D56" stroke-miterlimit="10"/>
<path d="M6.05332 315.522C7.39082 316.007 8.82297 316.176 10.2369 316.014C11.6508 315.853 13.0079 315.366 14.2011 314.591C15.3943 313.817 16.391 312.777 17.1128 311.552C17.8345 310.327 18.2615 308.952 18.3601 307.534C18.4587 306.117 18.2261 304.696 17.6808 303.383C17.1356 302.071 16.2924 300.903 15.2178 299.971C14.1433 299.04 12.8667 298.37 11.4887 298.015C10.1107 297.66 8.66891 297.629 7.27705 297.926L7.50706 302.648L5.26936 298.601C3.07318 299.631 1.37655 301.49 0.552291 303.769C0.259563 304.567 0.0816058 305.402 0.0237289 306.25C-0.117516 308.24 0.394695 310.222 1.48274 311.895C2.57078 313.568 4.17536 314.841 6.05332 315.522Z" fill="#57B894"/>
<path d="M17.1253 370.293C16.3354 366.277 19.7582 362.716 23.1392 360.402C26.5201 358.088 30.4706 355.814 31.6242 351.886C33.2821 346.242 28.3437 341.073 24.5 336.615C21.6483 333.307 19.1994 329.673 17.2045 325.789C16.3372 324.264 15.7464 322.597 15.4595 320.867C15.1564 318.365 15.9615 315.875 16.7725 313.488C19.4744 305.538 22.3632 297.655 25.4389 289.838" stroke="#3F3D56" stroke-miterlimit="10"/>
<path d="M6.43151 314.306C7.769 314.791 9.20115 314.96 10.6151 314.799C12.029 314.637 13.386 314.15 14.5792 313.376C15.7724 312.601 16.7692 311.561 17.4909 310.336C18.2127 309.111 18.6396 307.736 18.7382 306.319C18.8368 304.901 18.6043 303.48 18.059 302.168C17.5137 300.855 16.6706 299.687 15.596 298.755C14.5215 297.824 13.2449 297.154 11.8668 296.799C10.4888 296.444 9.04709 296.413 7.65523 296.71L7.88524 301.432L5.64753 297.385C3.45136 298.415 1.75472 300.274 0.930465 302.553C0.63774 303.351 0.459786 304.186 0.401906 305.035C0.260652 307.024 0.772859 309.006 1.86091 310.679C2.94895 312.352 4.55353 313.625 6.43151 314.306V314.306Z" stroke="#3F3D56" stroke-miterlimit="10"/>
<path d="M16.002 288.207C16.5269 286.761 17.4078 285.47 18.5637 284.453C19.7195 283.436 21.1131 282.726 22.616 282.389L23.3726 286.878L24.7753 282.163C26.7229 282.192 28.6109 282.838 30.1668 284.008C31.7227 285.178 32.8659 286.811 33.4314 288.672C33.9968 290.534 33.9553 292.526 33.3128 294.362C32.6703 296.198 31.4601 297.782 29.8569 298.887C28.2536 299.991 26.3403 300.558 24.3932 300.506C22.4461 300.454 20.5659 299.786 19.0241 298.597C17.4823 297.409 16.3587 295.762 15.8155 293.894C15.2723 292.027 15.3376 290.035 16.002 288.207Z" fill="#57B894"/>
<path d="M16.5068 286.586C17.0317 285.14 17.9126 283.849 19.0685 282.832C20.2243 281.815 21.6179 281.105 23.1207 280.768L23.8773 285.257L25.28 280.542C27.2277 280.571 29.1157 281.217 30.6716 282.387C32.2274 283.557 33.3706 285.19 33.9361 287.051C34.5016 288.912 34.4601 290.905 33.8176 292.741C33.1751 294.577 31.9649 296.161 30.3616 297.266C28.7584 298.37 26.845 298.937 24.8979 298.885C22.9508 298.833 21.0706 298.165 19.5289 296.976C17.9871 295.788 16.8635 294.141 16.3203 292.273C15.7771 290.405 15.8424 288.414 16.5068 286.586V286.586Z" stroke="#3F3D56" stroke-miterlimit="10"/>
<path d="M22.887 336.706C25.0082 337.474 27.3382 337.436 29.4332 336.599C31.5281 335.763 33.2413 334.185 34.2464 332.168C35.2514 330.151 35.478 327.835 34.8829 325.662C34.2877 323.489 32.9126 321.611 31.0194 320.385L29.9416 324.008L29.1773 319.466C29.1697 319.462 29.1619 319.459 29.1539 319.457C28.0193 319.045 26.8146 318.861 25.6085 318.914C24.4024 318.967 23.2186 319.257 22.1248 319.767C21.031 320.277 20.0486 320.998 19.2338 321.887C18.419 322.776 17.7877 323.817 17.376 324.951C16.9643 326.084 16.7803 327.287 16.8345 328.491C16.8886 329.695 17.18 330.877 17.6918 331.968C18.2036 333.06 18.9258 334.04 19.8172 334.853C20.7087 335.666 21.7518 336.296 22.887 336.706Z" fill="#57B894"/>
<path d="M23.3241 335.064C25.4452 335.832 27.7753 335.794 29.8702 334.957C31.9652 334.121 33.6784 332.543 34.6835 330.526C35.6885 328.509 35.9151 326.193 35.32 324.02C34.7248 321.847 33.3496 319.969 31.4565 318.743L30.3787 322.366L29.6144 317.824C29.6068 317.82 29.599 317.817 29.591 317.815C28.4567 317.404 27.2524 317.221 26.0469 317.274C24.8415 317.328 23.6584 317.619 22.5654 318.129C20.3579 319.16 18.6508 321.024 17.8198 323.311C16.9887 325.598 17.1018 328.122 18.134 330.326C19.1663 332.53 21.0332 334.234 23.3241 335.064V335.064Z" stroke="#3F3D56" stroke-miterlimit="10"/>
<path d="M13.3205 351.942C13.6853 354.014 14.7524 355.898 16.3431 357.278C17.9338 358.658 19.9512 359.449 22.057 359.52C24.1629 359.591 26.2291 358.936 27.9091 357.667C29.5891 356.397 30.7808 354.589 31.2843 352.546C31.7878 350.504 31.5725 348.35 30.6744 346.447C29.7764 344.544 28.2503 343.007 26.352 342.094C24.4538 341.181 22.2988 340.947 20.2485 341.432C18.1983 341.917 16.3774 343.092 15.0913 344.758L19.1854 350.911L13.5913 347.645C13.1576 349.035 13.0647 350.509 13.3205 351.942Z" fill="#57B894"/>
<path d="M13.6988 350.727C14.0635 352.799 15.1307 354.682 16.7213 356.062C18.312 357.442 20.3294 358.233 22.4353 358.304C24.5411 358.375 26.6073 357.721 28.2873 356.451C29.9674 355.181 31.159 353.373 31.6625 351.331C32.166 349.288 31.9507 347.134 31.0527 345.231C30.1546 343.328 28.6285 341.791 26.7303 340.878C24.832 339.965 22.677 339.731 20.6268 340.216C18.5765 340.702 16.7556 341.876 15.4695 343.542L19.5636 349.695L13.9695 346.429C13.5358 347.819 13.4429 349.293 13.6988 350.727V350.727Z" stroke="#3F3D56" stroke-miterlimit="10"/>
<path d="M323.2 228.877C329.509 228.877 334.624 222.269 334.624 214.116C334.624 205.964 329.509 199.355 323.2 199.355C316.89 199.355 311.776 205.964 311.776 214.116C311.776 222.269 316.89 228.877 323.2 228.877Z" fill="#2F2E41"/>
<path d="M385.361 229.213C391.67 229.213 396.785 222.604 396.785 214.452C396.785 206.299 391.67 199.69 385.361 199.69C379.051 199.69 373.936 206.299 373.936 214.452C373.936 222.604 379.051 229.213 385.361 229.213Z" fill="#2F2E41"/>
<path d="M376.624 258.065C376.624 264.734 367.297 270.142 355.792 270.142C344.287 270.142 334.96 264.734 334.96 258.065C334.96 252.288 341.955 247.457 351.303 246.276C352.791 246.08 354.291 245.983 355.792 245.987C358.307 245.979 360.816 246.249 363.271 246.792C371.08 248.53 376.624 252.925 376.624 258.065Z" fill="#2F2E41"/>
<path d="M325.888 225.523C332.197 225.523 337.312 218.914 337.312 210.761C337.312 202.609 332.197 196 325.888 196C319.578 196 314.464 202.609 314.464 210.761C314.464 218.914 319.578 225.523 325.888 225.523Z" stroke="#3F3D56" stroke-miterlimit="10"/>
<path d="M388.048 225.858C394.358 225.858 399.472 219.249 399.472 211.097C399.472 202.944 394.358 196.335 388.048 196.335C381.739 196.335 376.624 202.944 376.624 211.097C376.624 219.249 381.739 225.858 388.048 225.858Z" stroke="#3F3D56" stroke-miterlimit="10"/>
<path d="M358.48 266.787C369.985 266.787 379.312 261.38 379.312 254.71C379.312 248.039 369.985 242.632 358.48 242.632C346.975 242.632 337.648 248.039 337.648 254.71C337.648 261.38 346.975 266.787 358.48 266.787Z" stroke="#3F3D56" stroke-miterlimit="10"/>
<path d="M363.52 247.799C363.526 248.642 363.208 249.456 362.633 250.075C362.361 250.371 362.031 250.608 361.664 250.77C361.296 250.933 360.898 251.018 360.496 251.019H353.776C352.948 250.991 352.165 250.636 351.598 250.032C351.032 249.429 350.727 248.626 350.752 247.799C350.748 247.145 350.94 246.504 351.303 245.959C352.79 245.75 354.29 245.648 355.792 245.652C358.31 245.643 360.821 245.932 363.271 246.51C363.437 246.92 363.522 247.357 363.52 247.799Z" fill="white"/>
<path d="M325.888 210.09C327.743 210.09 329.248 208.588 329.248 206.735C329.248 204.883 327.743 203.381 325.888 203.381C324.032 203.381 322.528 204.883 322.528 206.735C322.528 208.588 324.032 210.09 325.888 210.09Z" fill="white"/>
<path d="M388.384 210.09C390.24 210.09 391.744 208.588 391.744 206.735C391.744 204.883 390.24 203.381 388.384 203.381C386.529 203.381 385.024 204.883 385.024 206.735C385.024 208.588 386.529 210.09 388.384 210.09Z" fill="white"/>
<path opacity="0.3" d="M391.744 241.626C393.6 241.626 395.104 240.124 395.104 238.271C395.104 236.418 393.6 234.916 391.744 234.916C389.889 234.916 388.384 236.418 388.384 238.271C388.384 240.124 389.889 241.626 391.744 241.626Z" fill="#6C63FF"/>
<path opacity="0.3" d="M309.759 241.626C311.615 241.626 313.119 240.124 313.119 238.271C313.119 236.418 311.615 234.916 309.759 234.916C307.904 234.916 306.399 236.418 306.399 238.271C306.399 240.124 307.904 241.626 309.759 241.626Z" fill="#6C63FF"/>
</g>
<defs>
<clipPath id="clip0_621_1165">
<rect width="722" height="392" fill="white"/>
</clipPath>
</defs>
</svg>
