<svg width="32" height="31" viewBox="0 0 32 31" fill="none" xmlns="http://www.w3.org/2000/svg">
<path fill-rule="evenodd" clip-rule="evenodd" d="M16 4.84375C10.1147 4.84375 5.34375 9.61472 5.34375 15.5C5.34375 21.3853 10.1147 26.1562 16 26.1562C21.8853 26.1562 26.6562 21.3853 26.6562 15.5C26.6562 9.61472 21.8853 4.84375 16 4.84375ZM3.40625 15.5C3.40625 8.54466 9.04466 2.90625 16 2.90625C22.9553 2.90625 28.5938 8.54466 28.5938 15.5C28.5938 22.4553 22.9553 28.0938 16 28.0938C9.04466 28.0938 3.40625 22.4553 3.40625 15.5Z" fill="white"/>
<path fill-rule="evenodd" clip-rule="evenodd" d="M18.9081 9.6875H20.8438C21.3788 9.6875 21.8125 10.1212 21.8125 10.6562C21.8125 11.1913 21.3788 11.625 20.8438 11.625H18.9022C18.648 11.6239 18.3961 11.6732 18.161 11.77C17.926 11.8668 17.7124 12.0092 17.5327 12.1889C17.3529 12.3687 17.2105 12.5822 17.1137 12.8173C17.017 13.0523 16.9677 13.3042 16.9687 13.5584L16.9688 13.5625L16.9688 27.125C16.9688 27.66 16.535 28.0938 16 28.0938C15.465 28.0938 15.0312 27.66 15.0312 27.125V13.5644" fill="white"/>
<path fill-rule="evenodd" clip-rule="evenodd" d="M11.1562 17.4375C11.1562 16.9025 11.59 16.4688 12.125 16.4688H19.875C20.41 16.4688 20.8438 16.9025 20.8438 17.4375C20.8438 17.9725 20.41 18.4062 19.875 18.4062H12.125C11.59 18.4062 11.1562 17.9725 11.1562 17.4375Z" fill="white"/>
</svg>
