<svg width="32" height="31" viewBox="0 0 32 31" fill="none" xmlns="http://www.w3.org/2000/svg">
<path fill-rule="evenodd" clip-rule="evenodd" d="M16 11.625C13.8599 11.625 12.125 13.3599 12.125 15.5C12.125 17.6401 13.8599 19.375 16 19.375C18.1401 19.375 19.875 17.6401 19.875 15.5C19.875 13.3599 18.1401 11.625 16 11.625ZM10.1875 15.5C10.1875 12.2898 12.7898 9.6875 16 9.6875C19.2102 9.6875 21.8125 12.2898 21.8125 15.5C21.8125 18.7102 19.2102 21.3125 16 21.3125C12.7898 21.3125 10.1875 18.7102 10.1875 15.5Z" fill="white"/>
<path fill-rule="evenodd" clip-rule="evenodd" d="M10.6719 5.32812C7.99675 5.32812 5.82812 7.49675 5.82812 10.1719V20.8281C5.82812 23.5033 7.99675 25.6719 10.6719 25.6719H21.3281C24.0033 25.6719 26.1719 23.5033 26.1719 20.8281V10.1719C26.1719 7.49675 24.0033 5.32812 21.3281 5.32812H10.6719ZM3.89062 10.1719C3.89062 6.42669 6.92669 3.39062 10.6719 3.39062H21.3281C25.0733 3.39062 28.1094 6.42669 28.1094 10.1719V20.8281C28.1094 24.5733 25.0733 27.6094 21.3281 27.6094H10.6719C6.92669 27.6094 3.89062 24.5733 3.89062 20.8281V10.1719Z" fill="white"/>
<path d="M22.2969 10.6562C23.0994 10.6562 23.75 10.0057 23.75 9.20312C23.75 8.40059 23.0994 7.75 22.2969 7.75C21.4943 7.75 20.8438 8.40059 20.8438 9.20312C20.8438 10.0057 21.4943 10.6562 22.2969 10.6562Z" fill="white"/>
</svg>
