<svg width="32" height="31" viewBox="0 0 32 31" fill="none" xmlns="http://www.w3.org/2000/svg">
<path fill-rule="evenodd" clip-rule="evenodd" d="M3.89062 5.32812C3.89062 4.25807 4.75807 3.39062 5.82812 3.39062H26.1719C27.2419 3.39062 28.1094 4.25807 28.1094 5.32812V25.6719C28.1094 26.7419 27.2419 27.6094 26.1719 27.6094H5.82812C4.75807 27.6094 3.89062 26.7419 3.89062 25.6719V5.32812ZM26.1719 5.32812H5.82812V25.6719H26.1719V5.32812Z" fill="white"/>
<path fill-rule="evenodd" clip-rule="evenodd" d="M15.0312 12.5938C15.5663 12.5938 16 13.0275 16 13.5625V21.3125C16 21.8475 15.5663 22.2812 15.0312 22.2812C14.4962 22.2812 14.0625 21.8475 14.0625 21.3125V13.5625C14.0625 13.0275 14.4962 12.5938 15.0312 12.5938Z" fill="white"/>
<path fill-rule="evenodd" clip-rule="evenodd" d="M11.1562 12.5938C11.6913 12.5938 12.125 13.0275 12.125 13.5625V21.3125C12.125 21.8475 11.6913 22.2812 11.1562 22.2812C10.6212 22.2812 10.1875 21.8475 10.1875 21.3125V13.5625C10.1875 13.0275 10.6212 12.5938 11.1562 12.5938Z" fill="white"/>
<path fill-rule="evenodd" clip-rule="evenodd" d="M18.4219 14.5312C17.7796 14.5312 17.1635 14.7864 16.7094 15.2406C16.2552 15.6948 16 16.3108 16 16.9531C16 17.4882 15.5663 17.9219 15.0312 17.9219C14.4962 17.9219 14.0625 17.4882 14.0625 16.9531C14.0625 15.7969 14.5218 14.6881 15.3393 13.8706C16.1569 13.053 17.2657 12.5938 18.4219 12.5938C19.5781 12.5938 20.6869 13.053 21.5044 13.8706C22.322 14.6881 22.7812 15.7969 22.7812 16.9531V21.3125C22.7812 21.8475 22.3475 22.2812 21.8125 22.2812C21.2775 22.2812 20.8438 21.8475 20.8438 21.3125V16.9531C20.8438 16.3108 20.5886 15.6948 20.1344 15.2406C19.6802 14.7864 19.0642 14.5312 18.4219 14.5312Z" fill="white"/>
<path d="M11.1562 11.1406C11.9588 11.1406 12.6094 10.49 12.6094 9.6875C12.6094 8.88496 11.9588 8.23438 11.1562 8.23438C10.3537 8.23438 9.70312 8.88496 9.70312 9.6875C9.70312 10.49 10.3537 11.1406 11.1562 11.1406Z" fill="white"/>
</svg>
