<svg width="145" height="36" viewBox="0 0 145 36" fill="none" xmlns="http://www.w3.org/2000/svg">
<path d="M1.976 9.3H5.746V27.5H1.976V9.3ZM17.0794 20.22C17.0794 19.4227 16.9234 18.816 16.6114 18.4C16.2994 17.984 15.7967 17.776 15.1034 17.776C14.6354 17.776 14.2194 17.88 13.8554 18.088C13.4914 18.2787 13.214 18.556 13.0234 18.92C12.8327 19.284 12.7374 19.7173 12.7374 20.22V27.5H9.35736V15.54H12.7374V17.36C13.1014 16.684 13.578 16.1727 14.1674 15.826C14.774 15.462 15.502 15.28 16.3514 15.28C17.7727 15.28 18.83 15.6873 19.5234 16.502C20.2167 17.2993 20.5634 18.4173 20.5634 19.856V27.5H17.0794V20.22ZM22.0378 15.54H25.6518L28.5898 22.742L31.5278 15.54H35.1418L28.5898 28.748L22.0378 15.54ZM36.5978 10.912C36.5978 10.3573 36.7972 9.90667 37.1958 9.56C37.5945 9.196 38.0712 9.014 38.6258 9.014C39.1805 9.014 39.6485 9.196 40.0298 9.56C40.4285 9.90667 40.6278 10.3573 40.6278 10.912C40.6278 11.4493 40.4285 11.9 40.0298 12.264C39.6485 12.628 39.1805 12.81 38.6258 12.81C38.0712 12.81 37.5945 12.628 37.1958 12.264C36.7972 11.9 36.5978 11.4493 36.5978 10.912ZM36.9618 15.54H40.2378V27.5H36.9618V15.54ZM42.2784 15.54H49.6624V18.374H42.2784V15.54ZM44.3324 11.38H47.5824V27.5H44.3324V11.38ZM57.097 27.76C55.797 27.76 54.6617 27.5 53.691 26.98C52.7203 26.46 51.9663 25.7407 51.429 24.822C50.909 23.886 50.649 22.7853 50.649 21.52C50.649 20.2373 50.909 19.1367 51.429 18.218C51.9663 17.282 52.7203 16.5627 53.691 16.06C54.6617 15.54 55.8057 15.28 57.123 15.28C58.4403 15.28 59.5583 15.5227 60.477 16.008C61.413 16.476 62.1237 17.1693 62.609 18.088C63.0943 18.9893 63.337 20.0813 63.337 21.364C63.337 21.52 63.3283 21.6847 63.311 21.858C63.311 22.0313 63.3024 22.17 63.285 22.274H52.573V20.194H60.347L59.437 21.39C59.5063 21.286 59.567 21.1473 59.619 20.974C59.6883 20.7833 59.723 20.6273 59.723 20.506C59.723 19.9167 59.6103 19.414 59.385 18.998C59.177 18.582 58.8737 18.2527 58.475 18.01C58.0763 17.7673 57.6083 17.646 57.071 17.646C56.4123 17.646 55.8577 17.7933 55.407 18.088C54.9737 18.3653 54.6357 18.79 54.393 19.362C54.1677 19.9167 54.0463 20.61 54.029 21.442C54.029 22.2393 54.1417 22.9153 54.367 23.47C54.6097 24.0247 54.965 24.4493 55.433 24.744C55.901 25.0387 56.4643 25.186 57.123 25.186C57.8683 25.186 58.501 25.0473 59.021 24.77C59.5583 24.4753 60.0003 24.042 60.347 23.47L63.285 24.38C62.661 25.5067 61.829 26.356 60.789 26.928C59.7663 27.4827 58.5357 27.76 57.097 27.76Z" fill="#191970"/>
<path d="M73.4375 14.6244C73.2883 14.6244 73.1452 14.6837 73.0398 14.7892C72.9343 14.8947 72.875 15.0377 72.875 15.1869V29.8119C72.875 30.1224 73.127 30.3744 73.4375 30.3744H92.5625C92.7117 30.3744 92.8548 30.3152 92.9602 30.2097C93.0657 30.1042 93.125 29.9611 93.125 29.8119V15.1869C93.125 15.0377 93.0657 14.8947 92.9602 14.7892C92.8548 14.6837 92.7117 14.6244 92.5625 14.6244H90.3125C89.8649 14.6244 89.4357 14.4466 89.1193 14.1302C88.8028 13.8137 88.625 13.3845 88.625 12.9369C88.625 12.4894 88.8028 12.0602 89.1193 11.7437C89.4357 11.4272 89.8649 11.2494 90.3125 11.2494H92.5625C94.736 11.2494 96.5 13.0134 96.5 15.1869V29.8119C96.5 30.8562 96.0852 31.8577 95.3467 32.5962C94.6083 33.3346 93.6068 33.7494 92.5625 33.7494H73.4375C72.3932 33.7494 71.3917 33.3346 70.6533 32.5962C69.9148 31.8577 69.5 30.8562 69.5 29.8119V15.1869C69.5 13.0134 71.264 11.2494 73.4375 11.2494H75.6875C76.1351 11.2494 76.5643 11.4272 76.8807 11.7437C77.1972 12.0602 77.375 12.4894 77.375 12.9369C77.375 13.3845 77.1972 13.8137 76.8807 14.1302C76.5643 14.4466 76.1351 14.6244 75.6875 14.6244H73.4375ZM82.6017 0.397677C82.654 0.345294 82.7161 0.303733 82.7844 0.275376C82.8528 0.247019 82.926 0.232422 83 0.232422C83.074 0.232422 83.1472 0.247019 83.2156 0.275376C83.2839 0.303733 83.346 0.345294 83.3983 0.397677L89.9142 6.91368C89.9931 6.99235 90.0469 7.09267 90.0686 7.20191C90.0904 7.31116 90.0793 7.42442 90.0366 7.52732C89.994 7.63023 89.9217 7.71816 89.829 7.77995C89.7363 7.84174 89.6274 7.87463 89.516 7.87443H84.6875V20.8119C84.6875 21.2595 84.5097 21.6887 84.1932 22.0052C83.8768 22.3216 83.4476 22.4994 83 22.4994C82.5524 22.4994 82.1232 22.3216 81.8068 22.0052C81.4903 21.6887 81.3125 21.2595 81.3125 20.8119V7.87443H76.484C76.3726 7.87463 76.2637 7.84174 76.171 7.77995C76.0783 7.71816 76.006 7.63023 75.9634 7.52732C75.9207 7.42442 75.9096 7.31116 75.9314 7.20191C75.9531 7.09267 76.0069 6.99235 76.0858 6.91368L82.6017 0.397677Z" fill="#191970"/>
</svg>
