<svg width="119" height="120" viewBox="0 0 119 120" fill="none" xmlns="http://www.w3.org/2000/svg">
<g clip-path="url(#clip0_2701_3673)">
<path d="M18.5111 13.7227C17.1084 13.7227 15.7631 14.2799 14.7712 15.2717C13.7794 16.2636 13.2222 17.6088 13.2222 19.0115V40.1671H39.6666V13.7227H18.5111ZM33.0555 33.556H19.8333V20.3338H33.0555V33.556Z" fill="black"/>
<path d="M13.2222 100.99C13.2222 102.392 13.7794 103.737 14.7712 104.729C15.7631 105.721 17.1084 106.278 18.5111 106.278H39.6666V79.834H13.2222V100.99ZM19.8333 86.4451H33.0555V99.6673H19.8333V86.4451Z" fill="black"/>
<path d="M79.3335 106.278H100.489C101.892 106.278 103.237 105.721 104.229 104.729C105.221 103.737 105.778 102.392 105.778 100.99V79.834H79.3335V106.278ZM85.9446 86.4451H99.1668V99.6673H85.9446V86.4451Z" fill="black"/>
<path d="M100.489 13.7227H79.3335V40.1671H105.778V19.0115C105.778 17.6088 105.221 16.2636 104.229 15.2717C103.237 14.2799 101.892 13.7227 100.489 13.7227ZM99.1668 33.556H85.9446V20.3338H99.1668V33.556Z" fill="black"/>
<path d="M66.1109 33.5564V26.9453H52.8887V40.1675H59.4998V33.5564H66.1109Z" fill="black"/>
<path d="M39.6665 40.166H46.2776V46.7771H39.6665V40.166Z" fill="black"/>
<path d="M46.2778 46.7773H59.5001V53.3885H46.2778V46.7773Z" fill="black"/>
<path d="M66.1112 20.3338V26.9449H72.7223V13.7227H46.2778V26.9449H52.8889V20.3338H66.1112Z" fill="black"/>
<path d="M13.2222 46.7773H19.8333V59.9996H13.2222V46.7773Z" fill="black"/>
<path d="M39.6666 53.3885V59.9996H33.0555V46.7773H26.4444V59.9996H19.8333V66.6107H13.2222V73.2218H26.4444V66.6107H33.0555V73.2218H39.6666V66.6107H46.2777V53.3885H39.6666Z" fill="black"/>
<path d="M66.1111 53.388H72.7222V59.9991H79.3333V53.388H85.9444V46.7769H72.7222V33.5547H66.1111V40.1658H59.5V46.7769H66.1111V53.388Z" fill="black"/>
<path d="M59.5001 99.6658H46.2778V106.277H72.7223V99.6658H66.1112V93.0547H59.5001V99.6658Z" fill="black"/>
<path d="M72.722 66.6109V59.9998H66.1109V53.3887H59.4998V59.9998H52.8887V66.6109H59.4998V73.222H66.1109V66.6109H72.722Z" fill="black"/>
<path d="M99.1665 66.6113H105.778V73.2224H99.1665V66.6113Z" fill="black"/>
<path d="M72.7222 66.6113H92.5555V73.2224H72.7222V66.6113Z" fill="black"/>
<path d="M99.1666 46.7773H92.5554V53.3885H85.9443V59.9996H92.5554V66.6107H99.1666V59.9996H105.778V53.3885H99.1666V46.7773Z" fill="black"/>
<path d="M66.1113 73.2227H72.7224V93.056H66.1113V73.2227Z" fill="black"/>
<path d="M46.2778 93.0558H52.8889V86.4447H59.5001V79.8336H52.8889V66.6113H46.2778V93.0558Z" fill="black"/>
</g>
<defs>
<clipPath id="clip0_2701_3673">
<rect width="119" height="119" fill="white" transform="translate(0 0.5)"/>
</clipPath>
</defs>
</svg>
