<svg width="6" height="21" viewBox="0 0 6 21" fill="none" xmlns="http://www.w3.org/2000/svg">
<path d="M6 3.15C6 4.8897 4.65685 6.3 3 6.3C1.34315 6.3 0 4.8897 0 3.15C0 1.4103 1.34315 0 3 0C4.65685 0 6 1.4103 6 3.15Z" fill="black"/>
<path d="M6 10.5C6 12.2397 4.65685 13.65 3 13.65C1.34315 13.65 0 12.2397 0 10.5C0 8.7603 1.34315 7.35 3 7.35C4.65685 7.35 6 8.7603 6 10.5Z" fill="black"/>
<path d="M6 17.85C6 19.5897 4.65685 21 3 21C1.34315 21 0 19.5897 0 17.85C0 16.1103 1.34315 14.7 3 14.7C4.65685 14.7 6 16.1103 6 17.85Z" fill="black"/>
</svg>
