<svg width="29" height="29" viewBox="0 0 29 29" fill="none" xmlns="http://www.w3.org/2000/svg">
<path fill-rule="evenodd" clip-rule="evenodd" d="M14.5 17.1506L25.1068 27.7574C25.4605 28.099 25.9341 28.288 26.4257 28.2837C26.9173 28.2794 27.3876 28.0822 27.7353 27.7346C28.0829 27.3869 28.2801 26.9167 28.2844 26.4251C28.2886 25.9334 28.0996 25.4598 27.7581 25.1062L17.1512 14.4993L27.7581 3.89243C28.0996 3.5388 28.2886 3.06517 28.2844 2.57355C28.2801 2.08193 28.0829 1.61166 27.7353 1.26402C27.3876 0.916379 26.9173 0.719187 26.4257 0.714915C25.9341 0.710643 25.4605 0.899632 25.1068 1.24118L14.5 11.8481L3.8931 1.24118C3.53788 0.908075 3.067 0.726239 2.58009 0.734145C2.09319 0.742052 1.62846 0.939081 1.28424 1.28354C0.940024 1.628 0.743323 2.09287 0.735761 2.57978C0.728199 3.06669 0.910369 3.53744 1.24372 3.89243L11.8487 14.4993L1.24185 25.1062C1.06277 25.2791 0.919926 25.486 0.821659 25.7148C0.723392 25.9436 0.671668 26.1896 0.669504 26.4386C0.667341 26.6875 0.714781 26.9344 0.809058 27.1648C0.903335 27.3953 1.04256 27.6046 1.21861 27.7807C1.39466 27.9567 1.604 28.0959 1.83444 28.1902C2.06487 28.2845 2.31176 28.3319 2.56073 28.3298C2.80969 28.3276 3.05572 28.2759 3.28448 28.1776C3.51324 28.0794 3.72014 27.9365 3.8931 27.7574L14.5 17.1506Z" fill="white"/>
</svg>
